<svg xmlns="http://www.w3.org/2000/svg" width="73.97" height="74.023" viewBox="0 0 73.97 74.023">
  <g id="iconfinder_printer_5346059" transform="translate(-19.994 -19.483)">
    <g id="Group_114" data-name="Group 114" transform="translate(24.954 36.585)">
      <g id="Group_113" data-name="Group 113" transform="translate(0)">
        <path id="Path_174" data-name="Path 174" d="M53.4,138.667c1.222-2.428,2.428-4.856,3.65-7.3.6-1.191,2.193-.83,3.305-.83h4.308a.941.941,0,0,0,0-1.88H60.2c-1.739,0-3.791-.219-4.731,1.645-1.238,2.475-2.475,4.935-3.713,7.41-.517,1.1,1.1,2.036,1.645.956Z" transform="translate(-51.657 -128.649)" fill="#00acff"/>
      </g>
    </g>
    <g id="Group_116" data-name="Group 116" transform="translate(75.065 36.589)">
      <g id="Group_115" data-name="Group 115">
        <path id="Path_175" data-name="Path 175" d="M372.44,130.557h4.167c1.081,0,2.851-.376,3.446.8l3.666,7.331c.548,1.081,2.162.125,1.629-.956-1.238-2.459-2.459-4.935-3.7-7.394-.909-1.833-2.882-1.661-4.59-1.661h-4.606a.94.94,0,0,0-.016,1.88Z" transform="translate(-371.537 -128.672)" fill="#00acff"/>
      </g>
    </g>
    <g id="Group_118" data-name="Group 118" transform="translate(37.008 19.484)">
      <g id="Group_117" data-name="Group 117" transform="translate(0 0)">
        <path id="Path_176" data-name="Path 176" d="M168.5,45.977V40.29c0-1.128.36-2.788-.517-3.666-2.773-2.8-5.546-5.593-8.318-8.4-2.726-2.741-5.436-5.483-8.162-8.224-.642-.658-1.629-.454-2.491-.454H142.4c-3.634,0-7.316-.157-10.95.016a3.075,3.075,0,0,0-2.851,3.055V45.961a.941.941,0,0,0,1.88,0V23.716a11.433,11.433,0,0,1,0-1.269c.11-.83.83-1.018,1.535-1.018h18.642L150,21.147q8.06,8.107,16.1,16.229c.266.266.517.533.783.8l-.282-.658v8.444a.948.948,0,0,0,1.9.016Z" transform="translate(-128.6 -19.484)" fill="#00acff"/>
      </g>
    </g>
    <g id="Group_120" data-name="Group 120" transform="translate(19.994 45.017)">
      <g id="Group_119" data-name="Group 119">
        <path id="Path_177" data-name="Path 177" d="M75.968,218.147H86.636a7.352,7.352,0,0,0,7.143-5.749,18.624,18.624,0,0,0,.157-3.963V189.918a7.362,7.362,0,0,0-4.606-6.908c-1.9-.736-4.1-.5-6.094-.5H29.6c-2.3,0-4.512-.063-6.5,1.316a7.518,7.518,0,0,0-3.1,6.407V209.2a11.237,11.237,0,0,0,.533,4.386,7.37,7.37,0,0,0,6.877,4.559H37.963a.941.941,0,0,0,0-1.88H27.3a5.435,5.435,0,0,1-5.42-5.436V192.738c0-1.144-.047-2.287.016-3.431a5.445,5.445,0,0,1,2.679-4.23,6,6,0,0,1,3.164-.721H86.526a5.446,5.446,0,0,1,5.53,5.42c0,7.1.11,14.209,0,21.305a5.422,5.422,0,0,1-4.355,5.076,15.977,15.977,0,0,1-3.352.094H75.983a.949.949,0,0,0-.016,1.9Z" transform="translate(-19.994 -182.472)" fill="#00acff"/>
      </g>
    </g>
    <g id="Group_122" data-name="Group 122" transform="translate(37.023 66.175)">
      <g id="Group_121" data-name="Group 121" transform="translate(0 0)">
        <path id="Path_178" data-name="Path 178" d="M128.7,318.456v23.357a3.069,3.069,0,0,0,3.055,3.055h33.352c1.864,0,3.493-1.081,3.493-3.117V318.456a.941.941,0,0,0-1.88,0v21.775c0,1.128.251,2.757-1.347,2.757H131.88c-1.661,0-1.269-2.13-1.269-3.243V318.44a.957.957,0,0,0-1.911.016Z" transform="translate(-128.7 -317.537)" fill="#00acff"/>
      </g>
    </g>
    <g id="Group_124" data-name="Group 124" transform="translate(32.646 66.141)">
      <g id="Group_123" data-name="Group 123">
        <path id="Path_179" data-name="Path 179" d="M144.081,323.424a13.356,13.356,0,0,0,2.961-.11,3.073,3.073,0,0,0,1.927-4.2c-.909-2.068-3.149-1.786-5.013-1.786H104.071c-2.444,0-4.324,2.694-2.71,4.809,1.159,1.52,3.008,1.3,4.7,1.3a.941.941,0,0,0,0-1.88,6.472,6.472,0,0,1-2.8-.188,1.1,1.1,0,0,1-.282-1.755,1.894,1.894,0,0,1,1.52-.407h41.545a1.177,1.177,0,0,1,.47,2.287,8.606,8.606,0,0,1-2.459.047.941.941,0,0,0,.031,1.88Z" transform="translate(-100.76 -317.317)" fill="#00acff"/>
      </g>
    </g>
    <g id="Group_129" data-name="Group 129" transform="translate(28.435 53.479)">
      <g id="Group_126" data-name="Group 126">
        <g id="Group_125" data-name="Group 125">
          <path id="Path_180" data-name="Path 180" d="M76.933,238.372a1.175,1.175,0,0,1,0,2.35c-1.52.078-1.52-2.272,0-2.35,1.206-.063,1.206-1.943,0-1.88a3.132,3.132,0,0,0-3.055,3.055,3.055,3.055,0,1,0,3.055-3.055C75.711,236.429,75.727,238.309,76.933,238.372Z" transform="translate(-73.874 -236.49)" fill="#00acff"/>
        </g>
      </g>
      <g id="Group_128" data-name="Group 128" transform="translate(8.585)">
        <g id="Group_127" data-name="Group 127">
          <path id="Path_181" data-name="Path 181" d="M131.733,238.372a1.175,1.175,0,0,1,0,2.35c-1.52.078-1.5-2.272,0-2.35,1.206-.063,1.206-1.943,0-1.88a3.132,3.132,0,0,0-3.055,3.055,3.055,3.055,0,1,0,3.055-3.055C130.511,236.429,130.527,238.309,131.733,238.372Z" transform="translate(-128.674 -236.49)" fill="#00acff"/>
        </g>
      </g>
    </g>
  </g>
</svg>
