<svg id="Group_100" data-name="Group 100" xmlns="http://www.w3.org/2000/svg" width="935" height="110" viewBox="0 0 935 110">
  <circle id="Ellipse_48" data-name="Ellipse 48" cx="5" cy="5" r="5" transform="translate(300 50)" fill="#00acff"/>
  <circle id="Ellipse_85" data-name="Ellipse 85" cx="5" cy="5" r="5" transform="translate(275 50)" fill="#00acff"/>
  <circle id="Ellipse_86" data-name="Ellipse 86" cx="5" cy="5" r="5" transform="translate(250 50)" fill="#00acff"/>
  <circle id="Ellipse_87" data-name="Ellipse 87" cx="5" cy="5" r="5" transform="translate(225 50)" fill="#00acff"/>
  <circle id="Ellipse_88" data-name="Ellipse 88" cx="5" cy="5" r="5" transform="translate(200 50)" fill="#00acff"/>
  <circle id="Ellipse_89" data-name="Ellipse 89" cx="5" cy="5" r="5" transform="translate(175 50)" fill="#00acff"/>
  <circle id="Ellipse_90" data-name="Ellipse 90" cx="5" cy="5" r="5" transform="translate(150 50)" fill="#00acff"/>
  <circle id="Ellipse_91" data-name="Ellipse 91" cx="5" cy="5" r="5" transform="translate(125 50)" fill="#00acff"/>
  <circle id="Ellipse_92" data-name="Ellipse 92" cx="5" cy="5" r="5" transform="translate(100 50)" fill="#00acff"/>
  <circle id="Ellipse_93" data-name="Ellipse 93" cx="5" cy="5" r="5" transform="translate(75 50)" fill="#00acff"/>
  <circle id="Ellipse_94" data-name="Ellipse 94" cx="5" cy="5" r="5" transform="translate(50 50)" fill="#00acff"/>
  <circle id="Ellipse_95" data-name="Ellipse 95" cx="5" cy="5" r="5" transform="translate(25 50)" fill="#00acff"/>
  <circle id="Ellipse_96" data-name="Ellipse 96" cx="5" cy="5" r="5" transform="translate(0 50)" fill="#00acff"/>
  <circle id="Ellipse_99" data-name="Ellipse 99" cx="5" cy="5" r="5" transform="translate(0 25)" fill="#00acff"/>
  <circle id="Ellipse_100" data-name="Ellipse 100" cx="5" cy="5" r="5" fill="#00acff"/>
  <circle id="Ellipse_49" data-name="Ellipse 49" cx="5" cy="5" r="5" transform="translate(325 50)" fill="#00acff"/>
  <circle id="Ellipse_50" data-name="Ellipse 50" cx="5" cy="5" r="5" transform="translate(350 50)" fill="#00acff"/>
  <circle id="Ellipse_51" data-name="Ellipse 51" cx="5" cy="5" r="5" transform="translate(375 50)" fill="#00acff"/>
  <circle id="Ellipse_52" data-name="Ellipse 52" cx="5" cy="5" r="5" transform="translate(400 50)" fill="#00acff"/>
  <circle id="Ellipse_53" data-name="Ellipse 53" cx="5" cy="5" r="5" transform="translate(425 50)" fill="#00acff"/>
  <circle id="Ellipse_54" data-name="Ellipse 54" cx="5" cy="5" r="5" transform="translate(450 50)" fill="#00acff"/>
  <circle id="Ellipse_55" data-name="Ellipse 55" cx="5" cy="5" r="5" transform="translate(475 50)" fill="#00acff"/>
  <circle id="Ellipse_56" data-name="Ellipse 56" cx="5" cy="5" r="5" transform="translate(500 50)" fill="#00acff"/>
  <circle id="Ellipse_57" data-name="Ellipse 57" cx="5" cy="5" r="5" transform="translate(525 50)" fill="#00acff"/>
  <circle id="Ellipse_77" data-name="Ellipse 77" cx="5" cy="5" r="5" transform="translate(550 50)" fill="#00acff"/>
  <circle id="Ellipse_78" data-name="Ellipse 78" cx="5" cy="5" r="5" transform="translate(575 50)" fill="#00acff"/>
  <circle id="Ellipse_79" data-name="Ellipse 79" cx="5" cy="5" r="5" transform="translate(600 50)" fill="#00acff"/>
  <circle id="Ellipse_80" data-name="Ellipse 80" cx="5" cy="5" r="5" transform="translate(625 50)" fill="#00acff"/>
  <circle id="Ellipse_81" data-name="Ellipse 81" cx="5" cy="5" r="5" transform="translate(650 50)" fill="#00acff"/>
  <circle id="Ellipse_82" data-name="Ellipse 82" cx="5" cy="5" r="5" transform="translate(675 50)" fill="#00acff"/>
  <circle id="Ellipse_83" data-name="Ellipse 83" cx="5" cy="5" r="5" transform="translate(700 50)" fill="#00acff"/>
  <circle id="Ellipse_84" data-name="Ellipse 84" cx="5" cy="5" r="5" transform="translate(725 50)" fill="#00acff"/>
  <circle id="Ellipse_97" data-name="Ellipse 97" cx="5" cy="5" r="5" transform="translate(750 50)" fill="#00acff"/>
  <circle id="Ellipse_98" data-name="Ellipse 98" cx="5" cy="5" r="5" transform="translate(775 50)" fill="#00acff"/>
  <circle id="Ellipse_102" data-name="Ellipse 102" cx="5" cy="5" r="5" transform="translate(800 50)" fill="#00acff"/>
  <circle id="Ellipse_103" data-name="Ellipse 103" cx="5" cy="5" r="5" transform="translate(825 50)" fill="#00acff"/>
  <circle id="Ellipse_104" data-name="Ellipse 104" cx="5" cy="5" r="5" transform="translate(850 50)" fill="#00acff"/>
  <circle id="Ellipse_105" data-name="Ellipse 105" cx="5" cy="5" r="5" transform="translate(875 50)" fill="#00acff"/>
  <circle id="Ellipse_106" data-name="Ellipse 106" cx="5" cy="5" r="5" transform="translate(900 50)" fill="#00acff"/>
  <circle id="Ellipse_107" data-name="Ellipse 107" cx="5" cy="5" r="5" transform="translate(925 50)" fill="#00acff"/>
  <circle id="Ellipse_108" data-name="Ellipse 108" cx="5" cy="5" r="5" transform="translate(925 75)" fill="#00acff"/>
  <circle id="Ellipse_109" data-name="Ellipse 109" cx="5" cy="5" r="5" transform="translate(925 100)" fill="#00acff"/>
  <circle id="Ellipse_101" data-name="Ellipse 101" cx="5" cy="5" r="5" transform="translate(775 25)" fill="#00acff"/>
</svg>
