<svg xmlns="http://www.w3.org/2000/svg" width="235" height="185" viewBox="0 0 235 185">
  <g id="Group_95" data-name="Group 95" transform="translate(-1201 -6133)">
    <circle id="Ellipse_48" data-name="Ellipse 48" cx="5" cy="5" r="5" transform="translate(1201 6133)" fill="#00acff"/>
    <circle id="Ellipse_49" data-name="Ellipse 49" cx="5" cy="5" r="5" transform="translate(1226 6133)" fill="#00acff"/>
    <circle id="Ellipse_50" data-name="Ellipse 50" cx="5" cy="5" r="5" transform="translate(1251 6133)" fill="#00acff"/>
    <circle id="Ellipse_51" data-name="Ellipse 51" cx="5" cy="5" r="5" transform="translate(1276 6133)" fill="#00acff"/>
    <circle id="Ellipse_52" data-name="Ellipse 52" cx="5" cy="5" r="5" transform="translate(1301 6133)" fill="#00acff"/>
    <circle id="Ellipse_53" data-name="Ellipse 53" cx="5" cy="5" r="5" transform="translate(1326 6133)" fill="#00acff"/>
    <circle id="Ellipse_54" data-name="Ellipse 54" cx="5" cy="5" r="5" transform="translate(1351 6133)" fill="#00acff"/>
    <circle id="Ellipse_55" data-name="Ellipse 55" cx="5" cy="5" r="5" transform="translate(1376 6133)" fill="#00acff"/>
    <circle id="Ellipse_56" data-name="Ellipse 56" cx="5" cy="5" r="5" transform="translate(1401 6133)" fill="#00acff"/>
    <circle id="Ellipse_57" data-name="Ellipse 57" cx="5" cy="5" r="5" transform="translate(1426 6133)" fill="#00acff"/>
    <circle id="Ellipse_58" data-name="Ellipse 58" cx="5" cy="5" r="5" transform="translate(1426 6158)" fill="#00acff"/>
    <circle id="Ellipse_59" data-name="Ellipse 59" cx="5" cy="5" r="5" transform="translate(1426 6183)" fill="#00acff"/>
    <circle id="Ellipse_60" data-name="Ellipse 60" cx="5" cy="5" r="5" transform="translate(1426 6208)" fill="#00acff"/>
    <circle id="Ellipse_61" data-name="Ellipse 61" cx="5" cy="5" r="5" transform="translate(1426 6233)" fill="#00acff"/>
    <circle id="Ellipse_62" data-name="Ellipse 62" cx="5" cy="5" r="5" transform="translate(1426 6258)" fill="#00acff"/>
    <circle id="Ellipse_63" data-name="Ellipse 63" cx="5" cy="5" r="5" transform="translate(1426 6283)" fill="#00acff"/>
    <circle id="Ellipse_64" data-name="Ellipse 64" cx="5" cy="5" r="5" transform="translate(1426 6308)" fill="#00acff"/>
  </g>
</svg>
