<svg xmlns="http://www.w3.org/2000/svg" width="785" height="60" viewBox="0 0 785 60">
  <g id="Group_98" data-name="Group 98" transform="translate(-901 -6133)">
    <circle id="Ellipse_48" data-name="Ellipse 48" cx="5" cy="5" r="5" transform="translate(1201 6133)" fill="#00acff"/>
    <circle id="Ellipse_85" data-name="Ellipse 85" cx="5" cy="5" r="5" transform="translate(1176 6133)" fill="#00acff"/>
    <circle id="Ellipse_86" data-name="Ellipse 86" cx="5" cy="5" r="5" transform="translate(1151 6133)" fill="#00acff"/>
    <circle id="Ellipse_87" data-name="Ellipse 87" cx="5" cy="5" r="5" transform="translate(1126 6133)" fill="#00acff"/>
    <circle id="Ellipse_88" data-name="Ellipse 88" cx="5" cy="5" r="5" transform="translate(1101 6133)" fill="#00acff"/>
    <circle id="Ellipse_89" data-name="Ellipse 89" cx="5" cy="5" r="5" transform="translate(1076 6133)" fill="#00acff"/>
    <circle id="Ellipse_90" data-name="Ellipse 90" cx="5" cy="5" r="5" transform="translate(1051 6133)" fill="#00acff"/>
    <circle id="Ellipse_91" data-name="Ellipse 91" cx="5" cy="5" r="5" transform="translate(1026 6133)" fill="#00acff"/>
    <circle id="Ellipse_92" data-name="Ellipse 92" cx="5" cy="5" r="5" transform="translate(1001 6133)" fill="#00acff"/>
    <circle id="Ellipse_93" data-name="Ellipse 93" cx="5" cy="5" r="5" transform="translate(976 6133)" fill="#00acff"/>
    <circle id="Ellipse_94" data-name="Ellipse 94" cx="5" cy="5" r="5" transform="translate(951 6133)" fill="#00acff"/>
    <circle id="Ellipse_95" data-name="Ellipse 95" cx="5" cy="5" r="5" transform="translate(926 6133)" fill="#00acff"/>
    <circle id="Ellipse_96" data-name="Ellipse 96" cx="5" cy="5" r="5" transform="translate(901 6133)" fill="#00acff"/>
    <circle id="Ellipse_99" data-name="Ellipse 99" cx="5" cy="5" r="5" transform="translate(901 6158)" fill="#00acff"/>
    <circle id="Ellipse_100" data-name="Ellipse 100" cx="5" cy="5" r="5" transform="translate(901 6183)" fill="#00acff"/>
    <circle id="Ellipse_49" data-name="Ellipse 49" cx="5" cy="5" r="5" transform="translate(1226 6133)" fill="#00acff"/>
    <circle id="Ellipse_50" data-name="Ellipse 50" cx="5" cy="5" r="5" transform="translate(1251 6133)" fill="#00acff"/>
    <circle id="Ellipse_51" data-name="Ellipse 51" cx="5" cy="5" r="5" transform="translate(1276 6133)" fill="#00acff"/>
    <circle id="Ellipse_52" data-name="Ellipse 52" cx="5" cy="5" r="5" transform="translate(1301 6133)" fill="#00acff"/>
    <circle id="Ellipse_53" data-name="Ellipse 53" cx="5" cy="5" r="5" transform="translate(1326 6133)" fill="#00acff"/>
    <circle id="Ellipse_54" data-name="Ellipse 54" cx="5" cy="5" r="5" transform="translate(1351 6133)" fill="#00acff"/>
    <circle id="Ellipse_55" data-name="Ellipse 55" cx="5" cy="5" r="5" transform="translate(1376 6133)" fill="#00acff"/>
    <circle id="Ellipse_56" data-name="Ellipse 56" cx="5" cy="5" r="5" transform="translate(1401 6133)" fill="#00acff"/>
    <circle id="Ellipse_57" data-name="Ellipse 57" cx="5" cy="5" r="5" transform="translate(1426 6133)" fill="#00acff"/>
    <circle id="Ellipse_77" data-name="Ellipse 77" cx="5" cy="5" r="5" transform="translate(1451 6133)" fill="#00acff"/>
    <circle id="Ellipse_78" data-name="Ellipse 78" cx="5" cy="5" r="5" transform="translate(1476 6133)" fill="#00acff"/>
    <circle id="Ellipse_79" data-name="Ellipse 79" cx="5" cy="5" r="5" transform="translate(1501 6133)" fill="#00acff"/>
    <circle id="Ellipse_80" data-name="Ellipse 80" cx="5" cy="5" r="5" transform="translate(1526 6133)" fill="#00acff"/>
    <circle id="Ellipse_81" data-name="Ellipse 81" cx="5" cy="5" r="5" transform="translate(1551 6133)" fill="#00acff"/>
    <circle id="Ellipse_82" data-name="Ellipse 82" cx="5" cy="5" r="5" transform="translate(1576 6133)" fill="#00acff"/>
    <circle id="Ellipse_83" data-name="Ellipse 83" cx="5" cy="5" r="5" transform="translate(1601 6133)" fill="#00acff"/>
    <circle id="Ellipse_84" data-name="Ellipse 84" cx="5" cy="5" r="5" transform="translate(1626 6133)" fill="#00acff"/>
    <circle id="Ellipse_97" data-name="Ellipse 97" cx="5" cy="5" r="5" transform="translate(1651 6133)" fill="#00acff"/>
    <circle id="Ellipse_98" data-name="Ellipse 98" cx="5" cy="5" r="5" transform="translate(1676 6133)" fill="#00acff"/>
    <circle id="Ellipse_101" data-name="Ellipse 101" cx="5" cy="5" r="5" transform="translate(1676 6158)" fill="#00acff"/>
  </g>
</svg>
