<svg id="Group_101" data-name="Group 101" xmlns="http://www.w3.org/2000/svg" width="235" height="185" viewBox="0 0 235 185">
  <circle id="Ellipse_48" data-name="Ellipse 48" cx="5" cy="5" r="5" transform="translate(225)" fill="#00acff"/>
  <circle id="Ellipse_49" data-name="Ellipse 49" cx="5" cy="5" r="5" transform="translate(200)" fill="#00acff"/>
  <circle id="Ellipse_50" data-name="Ellipse 50" cx="5" cy="5" r="5" transform="translate(175)" fill="#00acff"/>
  <circle id="Ellipse_51" data-name="Ellipse 51" cx="5" cy="5" r="5" transform="translate(150)" fill="#00acff"/>
  <circle id="Ellipse_52" data-name="Ellipse 52" cx="5" cy="5" r="5" transform="translate(125)" fill="#00acff"/>
  <circle id="Ellipse_53" data-name="Ellipse 53" cx="5" cy="5" r="5" transform="translate(100)" fill="#00acff"/>
  <circle id="Ellipse_54" data-name="Ellipse 54" cx="5" cy="5" r="5" transform="translate(75)" fill="#00acff"/>
  <circle id="Ellipse_55" data-name="Ellipse 55" cx="5" cy="5" r="5" transform="translate(50)" fill="#00acff"/>
  <circle id="Ellipse_56" data-name="Ellipse 56" cx="5" cy="5" r="5" transform="translate(25)" fill="#00acff"/>
  <circle id="Ellipse_57" data-name="Ellipse 57" cx="5" cy="5" r="5" fill="#00acff"/>
  <circle id="Ellipse_58" data-name="Ellipse 58" cx="5" cy="5" r="5" transform="translate(0 25)" fill="#00acff"/>
  <circle id="Ellipse_59" data-name="Ellipse 59" cx="5" cy="5" r="5" transform="translate(0 50)" fill="#00acff"/>
  <circle id="Ellipse_60" data-name="Ellipse 60" cx="5" cy="5" r="5" transform="translate(0 75)" fill="#00acff"/>
  <circle id="Ellipse_61" data-name="Ellipse 61" cx="5" cy="5" r="5" transform="translate(0 100)" fill="#00acff"/>
  <circle id="Ellipse_62" data-name="Ellipse 62" cx="5" cy="5" r="5" transform="translate(0 125)" fill="#00acff"/>
  <circle id="Ellipse_63" data-name="Ellipse 63" cx="5" cy="5" r="5" transform="translate(0 150)" fill="#00acff"/>
  <circle id="Ellipse_64" data-name="Ellipse 64" cx="5" cy="5" r="5" transform="translate(0 175)" fill="#00acff"/>
</svg>
