<svg xmlns="http://www.w3.org/2000/svg" width="60.639" height="44.854" viewBox="0 0 60.639 44.854">
  <g id="iconfinder_5303_-_Gmail_1313515" transform="translate(-14.625 -26.046)">
    <g id="Layer_x0020_1" transform="translate(14.625 26.046)">
      <g id="_316006816">
        <path id="_316007416" d="M425.683,1117.37l24.477,18.276H400.968l24.477-18.276.119.088Z" transform="translate(-395.245 -1091.257)" fill="#f7f5ed" fill-rule="evenodd"/>
        <path id="_316007536" d="M400.968,714.276,425.59,696.4l-.134-.1-.014.01-.047-.033q-3.415-2.4-6.8-4.878h0c-5.883-4.283-11.731-8.686-17.622-13.073v35.946Z" transform="translate(-395.245 -669.549)" fill="#f7f5ed" fill-rule="evenodd"/>
        <g id="Group_112" data-name="Group 112">
          <path id="_316007272" d="M1647.03,500.3h1.728a4.007,4.007,0,0,0,4-4V459.9a4.007,4.007,0,0,0-4-4h-1.728V500.3Z" transform="translate(-1592.115 -455.909)" fill="#00acff" fill-rule="evenodd"/>
          <path id="_316007032" d="M261.722,500.639h-1.728a4.007,4.007,0,0,1-4-4V459.907a4.007,4.007,0,0,1,4-4h1.728v44.727Z" transform="translate(-255.999 -455.912)" fill="#00acff" fill-rule="evenodd"/>
          <path id="_316007080" d="M425.683,474.185l24.477-18.276H400.968l24.477,18.276.119-.088Z" transform="translate(-395.245 -455.909)" fill="#f7f5ed" fill-rule="evenodd"/>
          <path id="_316006984" d="M1024.67,696.4l24.57,17.538V678.33c-4.065,3.027-8.109,6.061-12.158,9.059-3.833,2.837-7.671,5.641-11.536,8.375h0l-.875.635Z" transform="translate(-994.324 -669.549)" fill="#b7b6ad" fill-rule="evenodd"/>
          <path id="_316006120" d="M423.556,1130.416,398.81,1148.4l-.185-.255,24.746-17.981Z" transform="translate(-392.994 -1103.542)" fill="#b7b6ad"/>
          <path id="_316006720" d="M286.349,482.761c-9.328-5.557-21.229-15.6-30.346-22.31l2.7-4.228,2.947-.241.079-.071L286.2,474.186l.119-.088.119.088,24.477-18.276.079.071,2.947.241,2.7,4.228c-9.86,7.258-20.152,15.656-30.293,22.31Z" transform="translate(-256.003 -455.911)" fill="#00acff" fill-rule="evenodd"/>
        </g>
      </g>
    </g>
  </g>
</svg>
