<svg xmlns="http://www.w3.org/2000/svg" width="47.089" height="87.356" viewBox="0 0 47.089 87.356">
  <g id="Livello_12" transform="translate(-37.558)">
    <path id="Path_182" data-name="Path 182" d="M81.856,74.111H40.346V6.826h41.51ZM57.871,80.943A3.319,3.319,0,1,1,61.189,84.3a3.335,3.335,0,0,1-3.319-3.352m26.77,3.041h.006V3.348h0V3.331h0A3.346,3.346,0,0,0,81.3,0H40.9a3.348,3.348,0,0,0-3.344,3.331h0V83.983h.005c0,.035-.005.07-.005.106a3.329,3.329,0,0,0,3.388,3.267c.028,0,.055,0,.082,0v0H81.344a3.286,3.286,0,0,0,3.3-3.267c0-.036,0-.071-.005-.105" fill="#00acff"/>
  </g>
</svg>
