<svg xmlns="http://www.w3.org/2000/svg" width="477.051" height="247" viewBox="0 0 477.051 247">
  <g id="Group_104" data-name="Group 104" transform="translate(-138 -5463)">
    <text id="let_s" data-name="let&apos;s" transform="translate(311 5661.5) rotate(-90)" font-size="25" font-family="Montserrat-Bold, Montserrat" font-weight="700"><tspan x="-30.338" y="0">Let&apos;s</tspan></text>
    <text id="start" transform="translate(471 5690)" fill="#fff" font-size="80" font-family="Montserrat-Bold, Montserrat" font-weight="700" letter-spacing="0.07em"><tspan x="-144" y="0">START</tspan></text>
    <g id="undraw_lightbulb_moment_evxr" transform="translate(140.199 5463)">
      <path id="Path_87" data-name="Path 87" d="M151.4,500h25.344a10,10,0,0,1-10,10h-5.336a10,10,0,0,1-10-10Z" transform="translate(-85.55 -282.52)"/>
      <path id="Path_88" data-name="Path 88" d="M398.131,330.118v-9.3c0-11.233,12.217-21.859,20.143-29.44,11.172-10.68,17.044-25.027,17.044-41.835a55.781,55.781,0,0,0-111.561-.31q0,.155,0,.31c0,16.207,6.124,31.528,17.044,41.835,7.883,7.441,20.143,18.09,20.143,29.44v9.3" transform="translate(-301.011 -135.037)" fill="#00acff"/>
      <path id="Path_89" data-name="Path 89" d="M396.437,329.929a1.3,1.3,0,0,1-1.3-1.3v-9.3c0-10.928,10.778-21.13,18.648-28.579.653-.618,1.288-1.22,1.9-1.8,10.887-10.408,16.641-24.548,16.641-40.892a53.9,53.9,0,0,0-54.475-54.476h-.154a54.383,54.383,0,0,0-54.322,54.169v.3c0,16.007,6.063,30.91,16.635,40.889.536.506,1.092,1.027,1.663,1.561,7.972,7.464,18.889,17.685,18.889,28.827v9.3a1.3,1.3,0,1,1-2.61,0v-9.3c0-10.01-10.44-19.785-18.063-26.922-.574-.537-1.133-1.06-1.671-1.568-11.092-10.47-17.453-26.065-17.453-42.784v-.313a57,57,0,0,1,56.927-56.772h.161a56.787,56.787,0,0,1,57.082,57.085c0,17.074-6.033,31.867-17.447,42.779-.613.586-1.251,1.19-1.908,1.812-7.526,7.123-17.832,16.879-17.832,26.684v9.3a1.3,1.3,0,0,1-1.305,1.305Z" transform="translate(-299.317 -133.543)"/>
      <path id="Path_90" data-name="Path 90" d="M445.468,543.295H420.677a2.175,2.175,0,1,1,0-4.35h24.791a2.175,2.175,0,1,1,0,4.35Z" transform="translate(-354.546 -330.164)" fill="#fff"/>
      <path id="Path_91" data-name="Path 91" d="M292.313,177.522a2.166,2.166,0,0,1-1.429-.536l-18.677-16.3a2.175,2.175,0,1,1,2.86-3.277l18.677,16.3a2.175,2.175,0,0,1-1.431,3.813Z" transform="translate(-271.462 -114.276)" fill="#ffdf01"/>
      <path id="Path_92" data-name="Path 92" d="M574.652,177.522a2.175,2.175,0,0,1-1.431-3.813l18.676-16.3a2.175,2.175,0,0,1,2.86,3.277l-18.677,16.3a2.166,2.166,0,0,1-1.429.537Z" transform="translate(-441.548 -114.276)" fill="#ffdf01"/>
      <path id="Path_93" data-name="Path 93" d="M443.615,525.548H406.428a2.175,2.175,0,1,1,0-4.35h37.187a2.175,2.175,0,0,1,0,4.35Z" transform="translate(-346.495 -320.137)" fill="#fff"/>
      <path id="Path_94" data-name="Path 94" d="M449.176,442.389A2.175,2.175,0,0,1,447,440.214V390.632a2.175,2.175,0,0,1,4.35,0v49.582a2.175,2.175,0,0,1-2.175,2.175Z" transform="translate(-370.649 -245.133)" fill="#fff"/>
      <path id="Path_95" data-name="Path 95" d="M430.054,384.755c-7.027,0-15.654-6.357-16.018-6.628a2.175,2.175,0,0,1,2.6-3.49c2.161,1.6,8.788,5.768,13.422,5.768s11.26-4.164,13.423-5.769a2.175,2.175,0,0,1,2.6,3.491C445.708,378.4,437.08,384.755,430.054,384.755Z" transform="translate(-351.527 -237.081)" fill="#fff"/>
      <path id="Path_96" data-name="Path 96" d="M449.175,100.481A2.175,2.175,0,0,1,447,98.307V61.12a2.175,2.175,0,0,1,4.35,0V98.307a2.175,2.175,0,0,1-2.175,2.175Z" transform="translate(-370.648 -58.945)" fill="#ffdf01"/>
    </g>
    <g id="Group_105" data-name="Group 105" transform="translate(994 895.47)">
      <circle id="Ellipse_121" data-name="Ellipse 121" cx="81.5" cy="81.5" r="81.5" transform="translate(-856 4600.53)" fill="#fff" opacity="0.16"/>
      <circle id="Ellipse_122" data-name="Ellipse 122" cx="58.471" cy="58.471" r="58.471" transform="translate(-833.206 4623.794)" fill="#fff" opacity="0.21"/>
      <ellipse id="Ellipse_123" data-name="Ellipse 123" cx="22" cy="20" rx="22" ry="20" transform="translate(-797 4662.53)" fill="#fff" opacity="0.25"/>
    </g>
    <g id="Group_103" data-name="Group 103" transform="translate(-248 64.175)">
      <g id="Layer_2" data-name="Layer 2" transform="translate(413.088 5461)">
        <g id="Layer_1" data-name="Layer 1" transform="translate(0 0)">
          <path id="Path_97" data-name="Path 97" d="M132.159,13.53c6.894,9.376,17.132,13.6,22.855,9.376,3.171-2.292,4.292-6.67,3.533-11.72A53.224,53.224,0,0,0,126.471,0a29.3,29.3,0,0,0,5.688,13.53Z" transform="translate(-72.396 0)" fill="#fff"/>
          <path id="Path_98" data-name="Path 98" d="M93.317,19.26C99.109,32.377,98.488,45.3,90.68,50.991c-9.911,7.274-27.577,0-39.487-16.236-7.86-10.634-11.169-22.51-9.773-31.421a53.427,53.427,0,1,0,51.9,15.926Z" transform="translate(-0.428 -1.904)" fill="#fff"/>
          <path id="Path_100" data-name="Path 100" d="M356.648,136.314h6.291v14.564a14.857,14.857,0,0,1-.552,4.068,9.462,9.462,0,0,1-1.724,3.447,7.222,7.222,0,0,1-2.516,1.948,10.652,10.652,0,0,1-4.4.81,22.118,22.118,0,0,1-3.24-.241,7.446,7.446,0,0,1-2.93-1,7.308,7.308,0,0,1-2.155-2.1A8.1,8.1,0,0,1,344.083,155a16.876,16.876,0,0,1-.586-4.119V136.314h6.274v14.909a4.723,4.723,0,0,0,.914,3.1,3.068,3.068,0,0,0,2.551,1.12,3.137,3.137,0,0,0,2.551-1.1,4.774,4.774,0,0,0,.913-3.12Z" transform="translate(-196.314 -77.833)"/>
          <path id="Path_101" data-name="Path 101" d="M395.874,152.071l5.981-.448a6.377,6.377,0,0,0,.793,2.672,3.137,3.137,0,0,0,2.775,1.482,2.689,2.689,0,0,0,2.086-.758,2.465,2.465,0,0,0,.724-1.724,2.4,2.4,0,0,0-.689-1.724,7.153,7.153,0,0,0-3.223-1.413,13.013,13.013,0,0,1-5.964-2.965,6.6,6.6,0,0,1-1.724-4.723,7.411,7.411,0,0,1,.914-3.551,6.446,6.446,0,0,1,2.74-2.637,10.876,10.876,0,0,1,5-.965,8.928,8.928,0,0,1,5.964,1.724,8.049,8.049,0,0,1,2.43,5.55l-5.912.414a4.188,4.188,0,0,0-1-2.413,2.913,2.913,0,0,0-2.1-.758,2.189,2.189,0,0,0-1.724.569,1.827,1.827,0,0,0-.552,1.344,1.482,1.482,0,0,0,.448,1.069,4.878,4.878,0,0,0,2.12.9,22.406,22.406,0,0,1,5.895,2.154,6.567,6.567,0,0,1,2.62,2.706,7.963,7.963,0,0,1,.81,3.6,8.928,8.928,0,0,1-1.086,4.343,7.274,7.274,0,0,1-3.034,3,10.565,10.565,0,0,1-4.895,1.017c-3.447,0-5.86-.793-7.2-2.4a10.445,10.445,0,0,1-2.258-6.1" transform="translate(-226.181 -77.25)"/>
          <rect id="Rectangle_74" data-name="Rectangle 74" width="6.291" height="24.44" transform="translate(191.565 58.481)"/>
          <path id="Path_102" data-name="Path 102" d="M472.258,136.314h5.86l7.67,13.513V136.314h5.929v24.44h-5.929l-7.618-13.461v13.461h-5.912Z" transform="translate(-269.835 -77.833)"/>
          <path id="Path_103" data-name="Path 103" d="M527.338,136.314h16.857v5.24H533.629v3.878h9.807v4.981h-9.807v4.809H544.5v5.533H527.338Z" transform="translate(-301.285 -77.833)"/>
          <path id="Path_104" data-name="Path 104" d="M572.632,152.071l5.981-.448a6.135,6.135,0,0,0,.793,2.672,3.137,3.137,0,0,0,2.775,1.482,2.723,2.723,0,0,0,2.086-.758,2.465,2.465,0,0,0,.724-1.724,2.4,2.4,0,0,0-.689-1.724,7.257,7.257,0,0,0-3.223-1.413,12.668,12.668,0,0,1-5.929-2.965,6.481,6.481,0,0,1-1.724-4.723,7.411,7.411,0,0,1,.914-3.551,6.446,6.446,0,0,1,2.74-2.637,10.824,10.824,0,0,1,5-.965,8.877,8.877,0,0,1,5.946,1.724,7.98,7.98,0,0,1,2.447,5.55L584.56,143a4.309,4.309,0,0,0-1-2.413,2.879,2.879,0,0,0-2.1-.758,2.293,2.293,0,0,0-1.724.569,1.9,1.9,0,0,0-.552,1.344,1.5,1.5,0,0,0,.465,1.069,4.774,4.774,0,0,0,2.12.9,22.836,22.836,0,0,1,5.912,2.154,6.584,6.584,0,0,1,2.585,2.706,7.757,7.757,0,0,1,.827,3.6,9.119,9.119,0,0,1-1.086,4.343,7.274,7.274,0,0,1-3.034,3,10.565,10.565,0,0,1-4.895,1.017c-3.447,0-5.86-.793-7.187-2.4a10.341,10.341,0,0,1-2.275-6.1" transform="translate(-327.137 -77.25)"/>
          <path id="Path_105" data-name="Path 105" d="M620.412,152.071l5.981-.448a6.136,6.136,0,0,0,.793,2.672,3.154,3.154,0,0,0,2.775,1.482,2.654,2.654,0,0,0,2.068-.758,2.43,2.43,0,0,0,0-3.447,7.153,7.153,0,0,0-3.223-1.413,12.909,12.909,0,0,1-5.912-2.965,6.532,6.532,0,0,1-1.724-4.723,7.222,7.222,0,0,1,.914-3.551,6.446,6.446,0,0,1,2.723-2.637,10.824,10.824,0,0,1,5-.965,8.928,8.928,0,0,1,5.964,1.724,8.135,8.135,0,0,1,2.447,5.55l-5.929.414a4.188,4.188,0,0,0-1-2.413,2.878,2.878,0,0,0-2.1-.758,2.258,2.258,0,0,0-1.724.569,1.9,1.9,0,0,0-.552,1.344,1.5,1.5,0,0,0,.465,1.069,4.774,4.774,0,0,0,2.12.9,22.577,22.577,0,0,1,5.912,2.154,6.739,6.739,0,0,1,2.6,2.706,7.964,7.964,0,0,1,.81,3.6,8.929,8.929,0,0,1-1.086,4.343,7.378,7.378,0,0,1-3.034,3,10.566,10.566,0,0,1-4.895,1.017c-3.447,0-5.86-.793-7.2-2.4a10.566,10.566,0,0,1-2.258-6.1" transform="translate(-354.389 -77.25)"/>
          <path id="Path_106" data-name="Path 106" d="M705.586,150.172l5.516,2a13.668,13.668,0,0,1-1.724,4.654,8.135,8.135,0,0,1-2.965,2.827,9.582,9.582,0,0,1-4.5.931,11.134,11.134,0,0,1-5.429-1.155,9.342,9.342,0,0,1-3.62-4.068,16.013,16.013,0,0,1-1.534-7.446,14.236,14.236,0,0,1,2.689-9.307,9.307,9.307,0,0,1,7.6-3.275,9.1,9.1,0,0,1,6.05,1.879,11.135,11.135,0,0,1,3.258,5.74l-5.533,1.482a6.033,6.033,0,0,0-.62-1.637,3.826,3.826,0,0,0-1.293-1.327,3.206,3.206,0,0,0-1.724-.465,3.568,3.568,0,0,0-3.275,2.068,9.962,9.962,0,0,0-.862,4.792,10.548,10.548,0,0,0,1.034,5.567,3.275,3.275,0,0,0,2.878,1.5,3.154,3.154,0,0,0,2.723-1.224,8.135,8.135,0,0,0,1.344-3.533" transform="translate(-394.904 -77.264)"/>
          <path id="Path_107" data-name="Path 107" d="M742.68,147.925a14.081,14.081,0,0,1,2.775-9.307,9.5,9.5,0,0,1,7.791-3.292,9.6,9.6,0,0,1,7.808,3.292,13.789,13.789,0,0,1,2.758,9.169A17.8,17.8,0,0,1,762.6,154.8a9.549,9.549,0,0,1-3.447,4.257,9.911,9.911,0,0,1-5.653,1.517,11.186,11.186,0,0,1-5.705-1.31,9.721,9.721,0,0,1-3.654-4.171,16.063,16.063,0,0,1-1.4-7.118m6.274,0a9.186,9.186,0,0,0,1.155,5.291,3.585,3.585,0,0,0,3.12,1.62,3.637,3.637,0,0,0,3.137-1.586,10.341,10.341,0,0,0,1.1-5.653,8.618,8.618,0,0,0-1.155-5.033,3.689,3.689,0,0,0-3.137-1.586,3.6,3.6,0,0,0-3.051,1.6,9.41,9.41,0,0,0-1.155,5.343" transform="translate(-424.226 -77.258)"/>
          <path id="Path_108" data-name="Path 108" d="M799.845,136.314h5.86l7.67,13.513V136.314h5.912v24.44h-5.912l-7.635-13.461v13.461h-5.895Z" transform="translate(-456.882 -77.833)"/>
          <path id="Path_109" data-name="Path 109" d="M867.508,150.17l5.5,2a13.668,13.668,0,0,1-1.724,4.654,8.273,8.273,0,0,1-2.965,2.827,9.67,9.67,0,0,1-4.5.931,11.169,11.169,0,0,1-5.429-1.155,9.341,9.341,0,0,1-3.62-4.068,15.806,15.806,0,0,1-1.534-7.446,14.236,14.236,0,0,1,2.689-9.307,9.307,9.307,0,0,1,7.6-3.275,9,9,0,0,1,6.033,1.879,11.031,11.031,0,0,1,3.275,5.74l-5.55,1.482a7.727,7.727,0,0,0-.586-1.637,4.016,4.016,0,0,0-1.31-1.327,3.205,3.205,0,0,0-1.724-.465,3.551,3.551,0,0,0-3.275,2.068,9.928,9.928,0,0,0-.931,4.86,10.721,10.721,0,0,0,1.034,5.567,3.326,3.326,0,0,0,2.9,1.5,3.171,3.171,0,0,0,2.723-1.224,8.135,8.135,0,0,0,1.344-3.533" transform="translate(-487.35 -77.263)"/>
          <path id="Path_110" data-name="Path 110" d="M906.47,136.314h16.839v5.24H912.761v3.878h9.807v4.981h-9.807v4.809h10.876v5.533H906.47Z" transform="translate(-517.763 -77.833)"/>
          <path id="Path_111" data-name="Path 111" d="M954.319,136.285h10.445a6.412,6.412,0,0,1,5.171,1.965,8.17,8.17,0,0,1,1.724,5.55,8.5,8.5,0,0,1-1.844,5.791,7.256,7.256,0,0,1-5.653,2.086h-3.447v9.049H954.4Zm6.308,10.462h1.534a3.551,3.551,0,0,0,2.568-.758,2.723,2.723,0,0,0,.724-1.948,3.015,3.015,0,0,0-.638-1.948,2.913,2.913,0,0,0-2.4-.81H960.7Z" transform="translate(-545.083 -77.804)"/>
          <path id="Path_112" data-name="Path 112" d="M998.833,136.314h19.114v6.033h-6.412v18.408h-6.274V142.347h-6.429Z" transform="translate(-570.5 -77.833)"/>
          <path id="Path_113" data-name="Path 113" d="M337.78,61.567H294.122V51.054a8.239,8.239,0,0,1,2.189-5.36,6.343,6.343,0,0,1,4.878-2.585V54h26.095V43.108H334.3V54h3.447Z" transform="translate(-168.122 -24.614)" fill="#fff"/>
          <path id="Path_114" data-name="Path 114" d="M395.724,46.588h74.235V28.3H462.5V39.073H448.914V28.353H441.4V39.073h-4.464V28.353h-7.446V39.073h-4.481V28.353h-7.394V39.073h-8.463V28.3h-7.394V39.073h-5.964M534.145,27.129H514.634l11.1-10.255h-10.5L504.379,27.215v7.463H535.92q2.689,0,2.689,2.12c0,1.568-.9,2.361-2.689,2.361H495.4V27.129h-10.91c-5.653,0-8.463,2.154-8.463,6.446v7.239c0,3.792,1.982,5.705,5.964,5.705h5.946c0,2.5-.724,3.809-2.189,3.93l4.585,3.878c3.068-.172,4.774-1.1,5.067-2.809v-5h38.746c5.964,0,8.928-3.12,8.928-9.376Q543.1,27.137,534.145,27.129ZM487.936,42.038c-2.965,0-4.464-1.017-4.464-3.034V34.85c0-1.724,1.5-2.5,4.464-2.5Z" transform="translate(-226.135 -9.635)" fill="#fff"/>
          <path id="Path_115" data-name="Path 115" d="M823.585,54.282h-13.6V43.561h-7.463V54.282h-4.5V43.561h-7.463V54.282h-4.43V43.561h-7.463v15.65c0,2.172-.758,3.258-2.258,3.258s-2.206-1.086-2.206-3.258V43.561h-7.463V61.728q0,5.74,9.928,5.74,9.463,0,9.462-5.74h44.916V43.51h-7.463ZM880.463,43.51V54.282H866.674V43.51h-7.446V54.282H845.336V43.8h-7.446V61.728c0,2.5-.741,3.809-2.206,3.93l4.585,3.878c3.085-.172,4.774-1.1,5.067-2.809v-5h42.607V43.51Z" transform="translate(-437.98 -24.843)" fill="#fff"/>
          <path id="Path_116" data-name="Path 116" d="M962.01,98.732h-5.843V93.889h5.877Zm8.187,0h-5.843V93.889H970.2Z" transform="translate(-546.139 -53.609)" fill="#fff"/>
          <rect id="Rectangle_75" data-name="Rectangle 75" width="5.843" height="4.843" transform="translate(436.313 40.28)" fill="#fff"/>
          <rect id="Rectangle_76" data-name="Rectangle 76" width="5.843" height="4.843" transform="translate(170.106 40.28)" fill="#fff"/>
          <rect id="Rectangle_77" data-name="Rectangle 77" width="5.86" height="4.843" transform="translate(400.359 10.652)" fill="#fff"/>
          <rect id="Rectangle_78" data-name="Rectangle 78" width="5.86" height="4.843" transform="translate(377.521 10.652)" fill="#fff"/>
          <rect id="Rectangle_79" data-name="Rectangle 79" width="5.843" height="4.843" transform="translate(228.294 10.652)" fill="#fff"/>
          <path id="Path_117" data-name="Path 117" d="M333.689,29.8h-5.86V25.029h5.86Zm8.2,0h-5.826V25.029h5.843Z" transform="translate(-187.368 -14.291)" fill="#fff"/>
          <path id="Path_99" data-name="Path 99" d="M293.559,136.3h11.755a5.74,5.74,0,0,1,4.516,1.724,6.222,6.222,0,0,1,1.568,4.326,6.136,6.136,0,0,1-1.12,3.706,4.93,4.93,0,0,1-2.189,1.724,5.6,5.6,0,0,1,3.223,2.172,6.9,6.9,0,0,1,1.034,3.878,7.756,7.756,0,0,1-.724,3.447,6.326,6.326,0,0,1-2.017,2.413,6.067,6.067,0,0,1-2.379.793,23.5,23.5,0,0,1-2.827.345H293.559Zm6.343,9.566h2.723a2.792,2.792,0,0,0,2.034-.586,2.516,2.516,0,0,0,.586-1.724,2.379,2.379,0,0,0-.586-1.724,2.689,2.689,0,0,0-2-.586H299.9Zm0,9.618h3.189a3.016,3.016,0,0,0,2.292-.707,2.5,2.5,0,0,0,.655-1.844,2.293,2.293,0,0,0-.655-1.724,3.137,3.137,0,0,0-2.292-.672H299.9Z" transform="translate(-167.801 -77.814)"/>
        </g>
      </g>
    </g>
  </g>
</svg>
