<svg xmlns="http://www.w3.org/2000/svg" width="200" height="191.397" viewBox="0 0 200 191.397">
  <g id="iconfinder_m-09_4230558" transform="translate(-1.4 -14.6)">
    <path id="Path_169" data-name="Path 169" d="M193.425,79.834a107.164,107.164,0,0,0-21.4-33.925,100.41,100.41,0,0,0-31.741-22.87A93.937,93.937,0,0,0,101.36,14.6a92.627,92.627,0,0,0-38.926,8.439A98,98,0,0,0,30.693,45.824,107.1,107.1,0,0,0,9.3,79.834a112.61,112.61,0,0,0-7.9,41.6v62.449a1.33,1.33,0,0,0,.079.591,17,17,0,0,0,7.5,13.587l10.9,7.258a3.789,3.789,0,0,0,2.132.675H38.115c5.053,0,9.159-4.388,9.159-9.789V139.835c0-5.4-4.106-9.789-9.159-9.789H25.482a4.313,4.313,0,0,0,0,8.608H37.957a1.2,1.2,0,0,1,1.184,1.266v56.457a1.258,1.258,0,0,1-1.184,1.266H23.113l-9.949-6.667a8.583,8.583,0,0,1-3.711-7V121.522a102.845,102.845,0,0,1,7.264-38.229A97.03,97.03,0,0,1,36.378,51.9,90.233,90.233,0,0,1,65.593,30.887a86.272,86.272,0,0,1,71.536,0A92.816,92.816,0,0,1,166.343,51.9,97.177,97.177,0,0,1,186,83.125a103.169,103.169,0,0,1,7.264,38.229v62.364a8.583,8.583,0,0,1-3.711,7l-9.949,6.667H164.685a1.2,1.2,0,0,1-1.184-1.266V139.835a1.258,1.258,0,0,1,1.184-1.266H177.16a4.313,4.313,0,0,0,0-8.608H164.685c-5.053,0-9.159,4.388-9.159,9.789v56.457c0,5.4,4.106,9.789,9.159,9.789h16.107a3.789,3.789,0,0,0,2.132-.675l10.9-7.258a17.432,17.432,0,0,0,7.5-13.587c0-.169.079-.422.079-.591V121.438A112.678,112.678,0,0,0,193.425,79.834Z" transform="translate(0 0)" fill="#00acff"/>
    <path id="Path_170" data-name="Path 170" d="M156.1,174.919l-4.833-.161h-1.531a31.8,31.8,0,0,0-2.256-5.4l2.014-2.014,2.5-2.5-2.094-2.9a40.2,40.2,0,0,0-8.861-8.861l-2.819-2.014-4.108,4.189-.4.4a34.793,34.793,0,0,0-5.4-2.256v-6.364l-3.464-.564a39.015,39.015,0,0,0-12.244,0l-3.625.564.161,3.625v2.658a26.377,26.377,0,0,0-5.4,2.256l-.4-.4-4.108-4.189-2.819,2.014a35.622,35.622,0,0,0-8.861,8.861l-2.094,2.9,2.5,2.5c.644.644,1.369,1.289,2.014,2.014a34.8,34.8,0,0,0-2.256,5.4H86.18l-4.833.161-.564,3.3a41.264,41.264,0,0,0-.483,6.283,39.456,39.456,0,0,0,.483,6.2l.483,3.142,3.625.322h2.9a25.491,25.491,0,0,0,2.336,5.478l-.564.564L85.7,204.16l2.014,2.739a37.853,37.853,0,0,0,8.78,8.78l2.981,1.933,2.417-2.578c.644-.644,1.289-1.289,1.853-1.933a32.623,32.623,0,0,0,5.478,2.256V218.1l.161,3.706,3.3.564a39.015,39.015,0,0,0,12.244,0l3.3-.564.161-3.544v-2.739a35.656,35.656,0,0,0,5.478-2.256c.644.644,1.289,1.289,2.014,2.094l2.417,2.417,2.819-2.014a37.853,37.853,0,0,0,8.78-8.78l2.014-2.739-3.867-4.028-.564-.564a36.1,36.1,0,0,0,2.336-5.478H152.4l3.867-.322.483-3.142a40.223,40.223,0,0,0,.483-6.2,41.262,41.262,0,0,0-.483-6.283Zm-7.169,11.036h-2.175l-3.625.242-.644,3.061a24.747,24.747,0,0,1-3.625,8.78l-1.531,2.336,1.611,2.336a8.531,8.531,0,0,0,.806.967c.483.4.886.886,1.369,1.369-.644.725-1.369,1.369-2.014,2.014l-1.369-1.369a5.546,5.546,0,0,0-1.047-.886l-2.256-1.45-2.256,1.45a22.849,22.849,0,0,1-8.7,3.544l-2.578.483-.644,2.578a8.922,8.922,0,0,0-.161,1.531v1.772a15.548,15.548,0,0,1-2.739,0v-1.772a4.708,4.708,0,0,0-.161-1.531l-.644-2.578-2.578-.483a25.747,25.747,0,0,1-8.7-3.544l-2.256-1.45-2.256,1.45a3.223,3.223,0,0,0-.967.806c-.483.483-.886.967-1.369,1.369-.725-.644-1.369-1.369-2.014-2.014.483-.483.886-.886,1.369-1.289a8.533,8.533,0,0,0,.806-.967l1.611-2.336-1.531-2.336a23.358,23.358,0,0,1-3.625-8.78L94.4,186.2l-3.464-.242H88.6v-2.981h1.692a12.067,12.067,0,0,0,1.772-.161l2.417-.644.483-2.5a26.021,26.021,0,0,1,3.544-8.619l1.45-2.256-1.45-2.256a6.4,6.4,0,0,0-1.128-1.369l-.483-.483-.564-.564a25.692,25.692,0,0,1,2.094-2.094c.4.4.806.806,1.208,1.289a6.633,6.633,0,0,0,1.772,1.289l2.014.886,1.853-1.208a24.427,24.427,0,0,1,8.619-3.544l2.5-.483.644-2.417a3.561,3.561,0,0,0,.161-1.611v-1.853a15.551,15.551,0,0,1,2.739,0v1.853a9.918,9.918,0,0,0,.161,1.611l.644,2.417,2.5.483a24.427,24.427,0,0,1,8.619,3.544l1.853,1.208,2.014-.886a5.246,5.246,0,0,0,1.772-1.289l1.208-1.208a25.693,25.693,0,0,1,2.094,2.094l-.564.564-.483.483a6.4,6.4,0,0,0-1.128,1.369l-1.45,2.256,1.45,2.256a23.021,23.021,0,0,1,3.544,8.619l.483,2.5,2.417.644a6.319,6.319,0,0,0,1.772.161h1.692v1.531C149.013,184.908,148.933,185.391,148.933,185.955Z" transform="translate(-17.365 -16.852)" fill="#00acff"/>
  </g>
</svg>
