<svg xmlns="http://www.w3.org/2000/svg" xmlns:xlink="http://www.w3.org/1999/xlink" width="275" height="251" viewBox="0 0 275 251"><defs><style>.a,.f{fill:#fff;}.b,.c,.d,.g{fill:rgba(255,255,255,0.75);}.b,.e,.f,.g{stroke:#00acff;}.b,.e,.f{stroke-linecap:round;stroke-linejoin:round;stroke-miterlimit:10;}.c{stroke:#000;}.c,.d{opacity:0.5;}.e{fill:none;}.h{filter:url(#a);}</style><filter id="a" x="0" y="0" width="275" height="251" filterUnits="userSpaceOnUse"><feOffset dx="2" dy="5" input="SourceAlpha"/><feGaussianBlur stdDeviation="2.5" result="b"/><feFlood flood-opacity="0.161"/><feComposite operator="in" in2="b"/><feComposite in="SourceGraphic"/></filter></defs><g transform="translate(-410.5 -840.5)"><g class="h" transform="matrix(1, 0, 0, 1, 410.5, 840.5)"><rect class="a" width="260" height="236" rx="25" transform="translate(5.5 2.5)"/></g><g transform="translate(447.878 886)"><path class="b" d="M123.6,140.652v13.693a16.057,16.057,0,0,1-15.945,16.168H55.293a16.057,16.057,0,0,1-15.945-16.168V36.682A16.057,16.057,0,0,1,55.293,20.514h52.361A16.057,16.057,0,0,1,123.6,36.682V68.157" transform="translate(12.706 -20.514)"/><path class="c" d="M123.6,114.015v.24A15.945,15.945,0,0,1,107.656,130.2H55.293a15.945,15.945,0,0,1-15.945-15.945v-.24Z" transform="translate(12.706 19.8)"/><path class="d" d="M39.182,36.7v-.24A15.945,15.945,0,0,1,55.127,20.514h52.361a15.945,15.945,0,0,1,15.945,15.945v.24Z" transform="translate(12.632 -20.514)"/><path class="e" d="M123.6,114.015v.24A15.945,15.945,0,0,1,107.656,130.2H55.293a15.945,15.945,0,0,1-15.945-15.945v-.24Z" transform="translate(12.706 19.8)"/><path class="e" d="M39.348,36.7v-.24A15.945,15.945,0,0,1,55.293,20.514h52.361A15.945,15.945,0,0,1,123.6,36.459v.24Z" transform="translate(12.706 -20.514)"/><line class="f" x2="14.939" transform="translate(86.746 142.776)"/><line class="f" x2="14.939" transform="translate(86.746 8.092)"/><g transform="translate(0 42.948)"><line class="e" y2="15.683" transform="translate(8.779)"/><line class="e" x1="17.556" transform="translate(0 7.842)"/></g><g transform="translate(22.781 81.955)"><line class="e" y2="10.51" transform="translate(5.255 0)"/><line class="e" x1="10.51" transform="translate(0 5.255)"/></g><g transform="translate(115.634 43.509)"><path class="e" d="M156.856,82.749l5.552-2.408-5.676-13.086-6.386,2.769a31.2,31.2,0,0,0-7.644-7.288l2.452-6.813-13.481-5.445-2.555,6.43a35.891,35.891,0,0,0-12.073.1l-2.463-5.677-12.214,5.3,2.463,5.677a26.081,26.081,0,0,0-8.973,8.944l-6.807-2.455L83.609,82.271l6.7,3.185a31.252,31.252,0,0,0,.027,10.592l-6.892,2.989,5.676,13.086,6.059-2.628a31.8,31.8,0,0,0,9.661,9.655l-2.686,6.273,13.364,5.174,3.116-6.833a26.083,26.083,0,0,0,12.634-.5l2.882,6.644,12.214-5.3-2.882-6.644a35.713,35.713,0,0,0,8.355-8.674l6.5,2.589,5.287-13.412L157.31,96.4A31.732,31.732,0,0,0,156.856,82.749Zm-25.09,27.314A21.41,21.41,0,1,1,142.889,81.9,21.409,21.409,0,0,1,131.766,110.063Z" transform="translate(-83.448 -50.478)"/><path class="g" d="M156.967,82.832l5.552-2.408-5.676-13.086-6.386,2.769a31.194,31.194,0,0,0-7.644-7.288l2.452-6.813-13.481-5.445-2.555,6.43a35.892,35.892,0,0,0-12.073.1l-2.463-5.677-12.214,5.3,2.463,5.677a26.081,26.081,0,0,0-8.973,8.944l-6.807-2.455L83.72,82.355l6.7,3.185a31.252,31.252,0,0,0,.027,10.592L83.559,99.12l5.676,13.086,6.059-2.628a31.8,31.8,0,0,0,9.661,9.655l-2.686,6.273,13.364,5.174,3.115-6.833a26.083,26.083,0,0,0,12.634-.5l2.882,6.644,12.214-5.3L143.6,118.05a35.713,35.713,0,0,0,8.355-8.674l6.5,2.588,5.287-13.412-6.314-2.073A31.775,31.775,0,0,0,156.967,82.832Zm-25.247,27.2a21.41,21.41,0,1,1,11.123-28.161A21.409,21.409,0,0,1,131.721,110.029Z" transform="translate(-83.403 -50.444)"/></g><line class="e" x2="50.728" transform="translate(63.262 34.349)"/><line class="e" x2="35.227" transform="translate(63.146 50.065)"/><g transform="translate(166.034 11.192)"><line class="e" y2="15.683" transform="translate(8.779)"/><line class="e" x1="17.556" transform="translate(0 7.842)"/></g></g></g></svg>