<svg xmlns="http://www.w3.org/2000/svg" xmlns:xlink="http://www.w3.org/1999/xlink" width="275" height="251" viewBox="0 0 275 251"><defs><style>.a{fill:#fff;}.b{fill:rgba(255,255,255,0.75);}.b,.c{stroke:#00acff;}.c{fill:none;stroke-linejoin:round;}.d{filter:url(#a);}</style><filter id="a" x="0" y="0" width="275" height="251" filterUnits="userSpaceOnUse"><feOffset dx="2" dy="5" input="SourceAlpha"/><feGaussianBlur stdDeviation="2.5" result="b"/><feFlood flood-opacity="0.161"/><feComposite operator="in" in2="b"/><feComposite in="SourceGraphic"/></filter></defs><g transform="translate(-1238.5 -840.5)"><g class="d" transform="matrix(1, 0, 0, 1, 1238.5, 840.5)"><rect class="a" width="260" height="236" rx="25" transform="translate(5.5 2.5)"/></g><g transform="translate(1299.289 885.577)"><path class="b" d="M12.354,0H137.646A12.354,12.354,0,0,1,150,12.354V137.646A12.354,12.354,0,0,1,137.646,150H12.354A12.354,12.354,0,0,1,0,137.646V12.354A12.354,12.354,0,0,1,12.354,0Z" transform="translate(0 0)"/><line class="c" x2="150" transform="translate(0 20.025)"/><line class="c" x2="4.291" transform="translate(7.152 10.012)"/><line class="c" x2="4.291" transform="translate(17.164 10.012)"/><line class="c" x2="4.291" transform="translate(138.557 10.012)"/><rect class="c" width="44.34" height="24.316" rx="1" transform="translate(52.83 28.565)"/><rect class="c" width="44.34" height="24.316" rx="1" transform="translate(52.83 65.699)"/><rect class="c" width="25.746" height="24.316" rx="1" transform="translate(61.413 117.102)"/><rect class="c" width="24.316" height="24.316" rx="1" transform="translate(101.404 117.102)"/><rect class="c" width="24.316" height="24.316" rx="1" transform="translate(24.28 117.102)"/><path class="c" d="M16,59.039V42H93.707V59.039" transform="translate(19.969 57.52)"/><line class="c" y2="12.873" transform="translate(74.286 52.851)"/><line class="c" y2="27.176" transform="translate(74.286 89.976)"/><line class="c" y1="18.594" x2="20.025" transform="translate(25.709 119.963)"/><line class="c" y1="18.594" x2="18.594" transform="translate(65.703 119.963)"/><line class="c" y1="18.594" x2="18.594" transform="translate(104.268 119.963)"/><line class="c" x2="20.025" transform="translate(59.989 41.429)"/><line class="c" x2="5.721" transform="translate(84.282 41.429)"/><line class="c" x2="20.025" transform="translate(59.989 77.143)"/><line class="c" x2="5.721" transform="translate(84.282 77.143)"/><path class="c" d="M14.736,13H5v9.736" transform="translate(4.194 16.031)"/><path class="c" d="M64.736,22.736V13H55" transform="translate(75.714 16.031)"/></g></g></svg>