<svg xmlns="http://www.w3.org/2000/svg" xmlns:xlink="http://www.w3.org/1999/xlink" width="275" height="251" viewBox="0 0 275 251"><defs><style>.a,.b{fill:#fff;}.b{opacity:0.75;}.c{fill:rgba(0,172,255,0.28);}.d{opacity:0.5;}.e{fill:rgba(0,172,255,0.39);}.f{fill:rgba(255,255,255,0.7);stroke:#00acff;}.g{fill:rgba(0,172,255,0.46);}.h{filter:url(#a);}</style><filter id="a" x="0" y="0" width="275" height="251" filterUnits="userSpaceOnUse"><feOffset dx="2" dy="5" input="SourceAlpha"/><feGaussianBlur stdDeviation="2.5" result="b"/><feFlood flood-opacity="0.161"/><feComposite operator="in" in2="b"/><feComposite in="SourceGraphic"/></filter></defs><g transform="translate(-686.5 -840.5)"><g class="h" transform="matrix(1, 0, 0, 1, 686.5, 840.5)"><rect class="a" width="260" height="236" rx="25" transform="translate(5.5 2.5)"/></g><g transform="translate(746.807 885.988)"><rect class="b" width="146.041" height="118" transform="translate(2.193 5.012)"/><path class="c" d="M148.581,1H3.419A2.419,2.419,0,0,0,1,3.419V119.548a2.419,2.419,0,0,0,2.419,2.419H30.032a2.419,2.419,0,0,0,0-4.839H5.839V25.194H146.161v91.935H129.226V44.548a14.516,14.516,0,0,0-29.032,0v72.581H88.1a2.419,2.419,0,1,0,0,4.839h12.1v7.258a2.334,2.334,0,0,0,.169.832,1.883,1.883,0,0,0,.1.225c.036.073.056.152.1.223l12.1,19.355a2.416,2.416,0,0,0,4.1,0l12.1-19.355c.044-.07.063-.15.1-.223a2.416,2.416,0,0,0,.1-.227,2.384,2.384,0,0,0,.167-.832v-7.258h19.355A2.419,2.419,0,0,0,151,119.548V3.419A2.419,2.419,0,0,0,148.581,1ZM117.129,126.806V66.323h7.258v60.484Zm-12.1,0V66.323h7.258v60.484Zm19.355-65.323H105.032V56.645h19.355ZM114.71,34.871a9.687,9.687,0,0,1,9.677,9.677v7.258H105.032V44.548A9.687,9.687,0,0,1,114.71,34.871Zm0,109.144-7.732-12.37h15.465ZM5.839,20.355V5.839H146.161V20.355Z" transform="translate(-1 -1)"/><g class="d" transform="translate(19.98 35.811)"><path class="a" d="M81.428,60.955H11.5a2.5,2.5,0,0,1-2.5-2.5V18.5A2.5,2.5,0,0,1,11.5,16H81.428a2.5,2.5,0,0,1,2.5,2.5v39.96A2.5,2.5,0,0,1,81.428,60.955Z" transform="translate(-9 -16)"/></g><g transform="translate(12.7 10.448)"><circle class="e" cx="2.31" cy="2.31" r="2.31"/></g><g transform="translate(21.942 10.448)"><ellipse class="e" cx="2.888" cy="2.31" rx="2.888" ry="2.31"/></g><g transform="translate(31.296 10.448)"><circle class="e" cx="2.31" cy="2.31" r="2.31"/></g><g transform="translate(35.759 64.875)"><circle class="e" cx="2.888" cy="2.888" r="2.888"/></g><g transform="translate(53.656 64.875)"><ellipse class="e" cx="2.31" cy="2.888" rx="2.31" ry="2.888"/></g><g transform="translate(70.425 64.875)"><ellipse class="e" cx="2.31" cy="2.888" rx="2.31" ry="2.888"/></g><g transform="translate(28.516 45.918)"><path class="e" d="M65.448,25H15.5a2.5,2.5,0,1,1,0-5h49.95a2.5,2.5,0,1,1,0,5Z" transform="translate(-13 -20)"/></g><g transform="translate(28.516 55.585)"><path class="e" d="M65.448,29H15.5a2.5,2.5,0,0,1,0-5h49.95a2.5,2.5,0,1,1,0,5Z" transform="translate(-13 -24)"/></g><g transform="translate(25.992 85.064)"><path class="f" d="M75.082,61.061,70.155,59.75c-.2-.524-.417-1.046-.654-1.566l2.557-4.418a2.494,2.494,0,0,0-.395-3.017L63.184,42.27a2.5,2.5,0,0,0-3.017-.395l-4.418,2.557c-.519-.237-1.041-.457-1.566-.654l-1.311-4.928A2.49,2.49,0,0,0,50.462,37H38.474a2.5,2.5,0,0,0-2.413,1.853L34.75,43.781c-.524.2-1.046.417-1.566.654l-4.418-2.557a2.494,2.494,0,0,0-3.017.395L17.27,50.751a2.494,2.494,0,0,0-.395,3.017l2.557,4.418c-.237.519-.457,1.041-.654,1.566l-4.928,1.311A2.49,2.49,0,0,0,12,63.474V75.462a2.5,2.5,0,0,0,1.853,2.413l4.928,1.311c.2.524.417,1.046.654,1.566L16.878,85.17a2.494,2.494,0,0,0,.395,3.017l8.479,8.479a2.494,2.494,0,0,0,3.017.395L33.186,94.5c.519.237,1.041.457,1.566.654l1.311,4.928a2.49,2.49,0,0,0,2.41,1.851H50.462a2.5,2.5,0,0,0,2.413-1.853l1.311-4.928c.524-.2,1.046-.417,1.566-.654l4.418,2.557a2.5,2.5,0,0,0,3.017-.395l8.479-8.479a2.494,2.494,0,0,0,.395-3.017L69.5,80.749c.237-.519.457-1.041.654-1.566l4.928-1.311a2.49,2.49,0,0,0,1.851-2.41V63.474A2.5,2.5,0,0,0,75.082,61.061ZM44.468,84.453A14.985,14.985,0,1,1,59.453,69.468,14.984,14.984,0,0,1,44.468,84.453Z" transform="translate(-12 -37)"/></g><g transform="translate(40.741 100.05)"><path class="g" d="M35.483,77.965A17.483,17.483,0,1,1,52.965,60.483,17.5,17.5,0,0,1,35.483,77.965Zm0-29.97A12.488,12.488,0,1,0,47.97,60.483,12.5,12.5,0,0,0,35.483,48Z" transform="translate(-18 -43)"/></g></g></g></svg>