<svg xmlns="http://www.w3.org/2000/svg" width="200" height="198.594" viewBox="0 0 200 198.594">
  <g id="High_efficacy" transform="translate(-1.3 -1.354)">
    <path id="Path_171" data-name="Path 171" d="M100.666,65.429,76.21,43.06a4.159,4.159,0,0,0-5.613,0L46.141,65.43a4.79,4.79,0,0,0,3.233,8.325H56.4a3.652,3.652,0,0,1,3.652,3.652v26.046a3.563,3.563,0,0,0,3.563,3.563H82.6a3.563,3.563,0,0,0,3.563-3.563V77.405a3.652,3.652,0,0,1,3.654-3.652h7.623a4.79,4.79,0,0,0,3.231-8.325Z" transform="translate(99.077 92.931)" fill="#00acff"/>
    <path id="Path_172" data-name="Path 172" d="M145.595,127.12l-8.458-12.361a6.352,6.352,0,0,1-.548-6.3,60.5,60.5,0,0,0,2.373-5.754,6.367,6.367,0,0,1,4.851-4.073l14.723-2.761a6.864,6.864,0,0,0,5.6-6.746V76.415a6.864,6.864,0,0,0-5.6-6.743l-14.723-2.763a6.361,6.361,0,0,1-4.851-4.072,59.723,59.723,0,0,0-2.377-5.757,6.357,6.357,0,0,1,.556-6.3l8.455-12.358a6.862,6.862,0,0,0-.814-8.726L135.8,20.706a6.868,6.868,0,0,0-8.725-.812L114.711,28.35a6.359,6.359,0,0,1-6.3.552,60.228,60.228,0,0,0-5.758-2.378,6.363,6.363,0,0,1-4.072-4.851L95.815,6.949a6.862,6.862,0,0,0-6.743-5.6H76.364a6.861,6.861,0,0,0-6.742,5.594L66.861,21.673a6.366,6.366,0,0,1-4.076,4.852A59.667,59.667,0,0,0,57.031,28.9a6.366,6.366,0,0,1-6.3-.554L38.366,19.894a6.867,6.867,0,0,0-8.726.812l-8.985,8.986a6.863,6.863,0,0,0-.811,8.726L28.3,50.779a6.364,6.364,0,0,1,.556,6.3,58.645,58.645,0,0,0-2.381,5.76,6.354,6.354,0,0,1-4.851,4.071L6.9,69.672a6.864,6.864,0,0,0-5.6,6.743V89.121a6.864,6.864,0,0,0,5.6,6.746l14.721,2.761a6.36,6.36,0,0,1,4.854,4.071,58.446,58.446,0,0,0,2.381,5.758,6.366,6.366,0,0,1-.559,6.3l-8.448,12.356a6.861,6.861,0,0,0,.808,8.728l8.985,8.984a6.859,6.859,0,0,0,8.726.812l12.359-8.455a6.358,6.358,0,0,1,6.3-.552,59.536,59.536,0,0,0,5.758,2.377,6.368,6.368,0,0,1,4.072,4.852l2.762,14.725a6.862,6.862,0,0,0,6.743,5.6H89.073a6.861,6.861,0,0,0,6.742-5.594l2.762-14.726a6.368,6.368,0,0,1,4.072-4.853,59.248,59.248,0,0,0,5.758-2.378,6.379,6.379,0,0,1,6.3.554l12.359,8.455a6.86,6.86,0,0,0,8.726-.812l8.984-8.984A6.862,6.862,0,0,0,145.595,127.12ZM82.718,112.332A29.565,29.565,0,1,1,112.28,82.768a29.565,29.565,0,0,1-29.562,29.564Z" transform="translate(0)" fill="#00acff"/>
  </g>
</svg>
