<svg xmlns="http://www.w3.org/2000/svg" xmlns:xlink="http://www.w3.org/1999/xlink" width="200" height="200" viewBox="0 0 200 200">
  <defs>
    <clipPath id="clip-path">
      <rect id="Rectangle_88" data-name="Rectangle 88" width="200" height="200" transform="translate(978 9162)" fill="#fff" stroke="#707070" stroke-width="1"/>
    </clipPath>
  </defs>
  <g id="Mask_Group_1" data-name="Mask Group 1" transform="translate(-978 -9162)" clip-path="url(#clip-path)">
    <g id="iconfinder_Hand-wash-washing-cleaning-hygiene-03_5741138" transform="translate(988.355 9165.116)">
      <g id="Group_107" data-name="Group 107" transform="translate(145.084 20.692)">
        <line id="Line_31" data-name="Line 31" x1="0.002" y2="0.595" transform="translate(7.464)" fill="none" stroke="#00acff" stroke-linecap="round" stroke-linejoin="round" stroke-miterlimit="10" stroke-width="7.706"/>
        <line id="Line_32" data-name="Line 32" x1="0.002" y2="0.595" transform="translate(7.423 14.294)" fill="none" stroke="#00acff" stroke-linecap="round" stroke-linejoin="round" stroke-miterlimit="10" stroke-width="7.706"/>
        <line id="Line_33" data-name="Line 33" x1="0.595" y1="0.002" transform="translate(14.294 7.464)" fill="none" stroke="#00acff" stroke-linecap="round" stroke-linejoin="round" stroke-miterlimit="10" stroke-width="7.706"/>
        <line id="Line_34" data-name="Line 34" x1="0.595" y1="0.002" transform="translate(0 7.423)" fill="none" stroke="#00acff" stroke-linecap="round" stroke-linejoin="round" stroke-miterlimit="10" stroke-width="7.706"/>
      </g>
      <g id="Group_108" data-name="Group 108" transform="translate(164.401 120.977)">
        <line id="Line_35" data-name="Line 35" x1="0.002" y2="0.595" transform="translate(7.464)" fill="none" stroke="#00acff" stroke-linecap="round" stroke-linejoin="round" stroke-miterlimit="10" stroke-width="7.706"/>
        <line id="Line_36" data-name="Line 36" x1="0.002" y2="0.595" transform="translate(7.423 14.294)" fill="none" stroke="#00acff" stroke-linecap="round" stroke-linejoin="round" stroke-miterlimit="10" stroke-width="7.706"/>
        <line id="Line_37" data-name="Line 37" x1="0.595" y1="0.002" transform="translate(14.294 7.464)" fill="none" stroke="#00acff" stroke-linecap="round" stroke-linejoin="round" stroke-miterlimit="10" stroke-width="7.706"/>
        <line id="Line_38" data-name="Line 38" x1="0.595" y1="0.002" transform="translate(0 7.423)" fill="none" stroke="#00acff" stroke-linecap="round" stroke-linejoin="round" stroke-miterlimit="10" stroke-width="7.706"/>
      </g>
      <g id="Group_109" data-name="Group 109" transform="translate(0 111.935)">
        <line id="Line_39" data-name="Line 39" x1="0.002" y2="0.595" transform="translate(7.464)" fill="none" stroke="#00acff" stroke-linecap="round" stroke-linejoin="round" stroke-miterlimit="10" stroke-width="7.706"/>
        <line id="Line_40" data-name="Line 40" x1="0.002" y2="0.595" transform="translate(7.423 14.294)" fill="none" stroke="#00acff" stroke-linecap="round" stroke-linejoin="round" stroke-miterlimit="10" stroke-width="7.706"/>
        <line id="Line_41" data-name="Line 41" x1="0.595" y1="0.002" transform="translate(14.294 7.464)" fill="none" stroke="#00acff" stroke-linecap="round" stroke-linejoin="round" stroke-miterlimit="10" stroke-width="7.706"/>
        <line id="Line_42" data-name="Line 42" x1="0.595" y1="0.002" transform="translate(0 7.423)" fill="none" stroke="#00acff" stroke-linecap="round" stroke-linejoin="round" stroke-miterlimit="10" stroke-width="7.706"/>
      </g>
      <g id="Group_110" data-name="Group 110" transform="translate(24.249 165.365)">
        <line id="Line_43" data-name="Line 43" x1="0.002" y2="0.595" transform="translate(7.464)" fill="none" stroke="#00acff" stroke-linecap="round" stroke-linejoin="round" stroke-miterlimit="10" stroke-width="7.706"/>
        <line id="Line_44" data-name="Line 44" x1="0.002" y2="0.595" transform="translate(7.423 14.294)" fill="none" stroke="#00acff" stroke-linecap="round" stroke-linejoin="round" stroke-miterlimit="10" stroke-width="7.706"/>
        <line id="Line_45" data-name="Line 45" x1="0.595" y1="0.002" transform="translate(14.294 7.464)" fill="none" stroke="#00acff" stroke-linecap="round" stroke-linejoin="round" stroke-miterlimit="10" stroke-width="7.706"/>
        <line id="Line_46" data-name="Line 46" x1="0.595" y1="0.002" transform="translate(0 7.423)" fill="none" stroke="#00acff" stroke-linecap="round" stroke-linejoin="round" stroke-miterlimit="10" stroke-width="7.706"/>
      </g>
      <path id="Path_141" data-name="Path 141" d="M86.989,161.739l1.416,6.383a12.676,12.676,0,0,0,9.631,9.631l6.383,1.416-6.383,1.416a12.676,12.676,0,0,0-9.631,9.631L86.989,196.6l-1.416-6.383a12.676,12.676,0,0,0-9.631-9.631l-6.383-1.416,6.383-1.416a12.676,12.676,0,0,0,9.631-9.631Z" transform="translate(-29.402 -41.295)" fill="none" stroke="#00acff" stroke-linecap="round" stroke-linejoin="round" stroke-miterlimit="10" stroke-width="7.706"/>
      <g id="Group_111" data-name="Group 111" transform="translate(24.776)">
        <path id="Path_142" data-name="Path 142" d="M99.193,119.211,73.087,39.586a10.128,10.128,0,0,1,6.789-12.611h0a10.128,10.128,0,0,1,12.611,6.789L116.4,107.1" transform="translate(-54.798 -14.256)" fill="none" stroke="#00acff" stroke-linecap="round" stroke-linejoin="round" stroke-miterlimit="10" stroke-width="7.706"/>
        <path id="Path_143" data-name="Path 143" d="M145.5,98.363,121.588,25.031a10.128,10.128,0,0,1,6.789-12.611h0a10.128,10.128,0,0,1,12.611,6.789L164.9,92.541" transform="translate(-64.498 -11.345)" fill="none" stroke="#00acff" stroke-linecap="round" stroke-linejoin="round" stroke-miterlimit="10" stroke-width="7.706"/>
        <path id="Path_144" data-name="Path 144" d="M170.55,93.749,149.833,31.067a10.128,10.128,0,0,1,6.789-12.611h0a10.128,10.128,0,0,1,12.611,6.789l27.854,85.448a57.178,57.178,0,0,1,2.116,22.251h0a57.178,57.178,0,0,0,2.116,22.251l15.262,50.4" transform="translate(-70.147 -12.552)" fill="none" stroke="#00acff" stroke-linecap="round" stroke-linejoin="round" stroke-miterlimit="10" stroke-width="7.706"/>
        <path id="Path_145" data-name="Path 145" d="M120.765,104.025l-25.854-79.8A10.128,10.128,0,0,1,101.7,11.614h0A10.128,10.128,0,0,1,114.312,18.4l25.854,79.8" transform="translate(-59.163 -11.184)" fill="none" stroke="#00acff" stroke-linecap="round" stroke-linejoin="round" stroke-miterlimit="10" stroke-width="7.706"/>
        <path id="Path_146" data-name="Path 146" d="M126.151,193.073a11.155,11.155,0,0,1,6.325,7.062l12.08,40.252" transform="translate(-65.497 -47.562)" fill="none" stroke="#00acff" stroke-linecap="round" stroke-linejoin="round" stroke-miterlimit="10" stroke-width="7.706"/>
        <path id="Path_147" data-name="Path 147" d="M148.825,154.933s-11.111-27.35-52.954-14.793l-16.853-7.8-6.216-12.9a14.807,14.807,0,0,0-20.813-4.879l-1.655.943,10.579,23.362a19.6,19.6,0,0,0,3.461,4.757l7.06,7.094" transform="translate(-50.333 -31.382)" fill="none" stroke="#00acff" stroke-linecap="round" stroke-linejoin="round" stroke-miterlimit="10" stroke-width="7.706"/>
      </g>
    </g>
  </g>
</svg>
