<svg xmlns="http://www.w3.org/2000/svg" width="30" height="30" viewBox="0 0 30 30">
  <path id="iconfinder_10_2135789" d="M21,6A15,15,0,1,0,36,21,15,15,0,0,0,21,6ZM19.062,7.71a20.943,20.943,0,0,0-3.372,5.982,20.049,20.049,0,0,1-4.53-1.836A13.4,13.4,0,0,1,19.062,7.71Zm-8.574,4.932a20.972,20.972,0,0,0,4.878,2.01,21.375,21.375,0,0,0-.954,5.838H7.578A13.363,13.363,0,0,1,10.488,12.642ZM7.578,21.5h6.834a21.338,21.338,0,0,0,.954,5.838,21.235,21.235,0,0,0-4.878,2.01A13.334,13.334,0,0,1,7.578,21.5Zm3.582,8.634A20.5,20.5,0,0,1,15.69,28.3a21.151,21.151,0,0,0,3.372,5.982A13.363,13.363,0,0,1,11.16,30.138ZM20.5,34.416a20.324,20.324,0,0,1-3.816-6.354,20.4,20.4,0,0,1,3.816-.456Zm0-7.818a21.512,21.512,0,0,0-4.146.5,20.322,20.322,0,0,1-.924-5.6H20.5Zm0-6.1h-5.07a20.322,20.322,0,0,1,.924-5.6,21,21,0,0,0,4.146.5Zm0-6.108a20.521,20.521,0,0,1-3.816-.456A20.1,20.1,0,0,1,20.5,7.578ZM34.422,20.5h-6.84a21.522,21.522,0,0,0-.954-5.838,21.233,21.233,0,0,0,4.89-2.016A13.4,13.4,0,0,1,34.422,20.5ZM30.84,11.862A20.026,20.026,0,0,1,26.3,13.7,21.171,21.171,0,0,0,22.932,7.71,13.369,13.369,0,0,1,30.84,11.862ZM21.51,7.584a20.173,20.173,0,0,1,3.8,6.354,20.847,20.847,0,0,1-3.8.456Zm0,7.818a20.933,20.933,0,0,0,4.134-.5,20.2,20.2,0,0,1,.924,5.592H21.51Zm0,6.1h5.058a20.427,20.427,0,0,1-.924,5.592,21.809,21.809,0,0,0-4.134-.5Zm0,6.108a19.846,19.846,0,0,1,3.8.456,20.173,20.173,0,0,1-3.8,6.354Zm1.428,6.678A21.17,21.17,0,0,0,26.3,28.3a20.138,20.138,0,0,1,4.542,1.836A13.4,13.4,0,0,1,22.938,34.29Zm8.574-4.932a21.233,21.233,0,0,0-4.89-2.016,21.484,21.484,0,0,0,.954-5.838h6.84A13.321,13.321,0,0,1,31.512,29.358Z" transform="translate(-6 -6)"/>
</svg>
