<svg xmlns="http://www.w3.org/2000/svg" xmlns:xlink="http://www.w3.org/1999/xlink" width="398.003" height="94.731" viewBox="0 0 398.003 94.731">
  <defs>
    <style>
      .cls-1 {
        fill: #808184;
      }

      .cls-2 {
        fill: url(#radial-gradient);
      }

      .cls-3 {
        fill: url(#radial-gradient-2);
      }
    </style>
    <radialGradient id="radial-gradient" cx="0.578" cy="0.5" r="1.054" gradientTransform="matrix(-0.778, 0.628, -0.581, -0.719, 1.318, 0.497)" gradientUnits="objectBoundingBox">
      <stop offset="0" stop-color="#c9cacc"/>
      <stop offset="1" stop-color="#656566"/>
    </radialGradient>
    <radialGradient id="radial-gradient-2" cx="0.768" cy="0.5" r="0.623" gradientTransform="matrix(0.444, -0.896, 0.881, 0.437, -0.64, 0.76)" gradientUnits="objectBoundingBox">
      <stop offset="0" stop-color="#fff"/>
      <stop offset="0.069" stop-color="#f7f7f7"/>
      <stop offset="0.258" stop-color="#f7f7f7"/>
      <stop offset="1" stop-color="#737373"/>
    </radialGradient>
  </defs>
  <g id="Group_106" data-name="Group 106" transform="translate(-140 -17.356)">
    <g id="Layer_2" data-name="Layer 2" transform="translate(139.894 17.598)">
      <g id="Layer_1" data-name="Layer 1" transform="translate(0.106 0)">
        <path id="Path_118" data-name="Path 118" class="cls-1" d="M36.511,11.968c6.1,8.294,15.154,12.029,20.215,8.294,2.805-2.028,3.8-5.9,3.125-10.367A47.078,47.078,0,0,0,31.48,0a25.917,25.917,0,0,0,5.031,11.968Z" transform="translate(16.35 0)"/>
        <path id="Path_119" data-name="Path 119" class="cls-1" d="M82.269,14.917c5.122,11.6,4.574,23.036-2.333,28.067-8.766,6.434-24.393,0-34.927-14.361C38.058,19.216,35.131,8.712,36.366.83a47.258,47.258,0,1,0,45.9,14.087Z" transform="translate(-0.106 0.435)"/>
        <path id="Path_120" data-name="Path 120" class="cls-1" d="M73.07,33.934h10.4a5.077,5.077,0,0,1,3.994,1.525,5.5,5.5,0,0,1,1.387,3.827,5.428,5.428,0,0,1-.991,3.278,4.36,4.36,0,0,1-1.936,1.525,4.955,4.955,0,0,1,2.851,1.921,6.1,6.1,0,0,1,.915,3.43,6.86,6.86,0,0,1-.64,3.049,5.6,5.6,0,0,1-1.784,2.134,5.367,5.367,0,0,1-2.1.7,20.779,20.779,0,0,1-2.5.3H73.07ZM78.68,42.4h2.409a2.47,2.47,0,0,0,1.8-.518,2.226,2.226,0,0,0,.518-1.525,2.1,2.1,0,0,0-.518-1.525,2.378,2.378,0,0,0-1.768-.518H78.68Zm0,8.507H81.5a2.668,2.668,0,0,0,2.028-.625,2.211,2.211,0,0,0,.579-1.631,2.028,2.028,0,0,0-.579-1.525,2.775,2.775,0,0,0-2.028-.595H78.68Z" transform="translate(38.166 17.793)"/>
        <path id="Path_121" data-name="Path 121" class="cls-1" d="M97.132,33.93H102.7V46.812a13.141,13.141,0,0,1-.488,3.6,8.37,8.37,0,0,1-1.525,3.049,6.388,6.388,0,0,1-2.226,1.723,9.422,9.422,0,0,1-3.888.717,19.561,19.561,0,0,1-2.866-.213,6.586,6.586,0,0,1-2.592-.884,6.464,6.464,0,0,1-1.906-1.86,7.165,7.165,0,0,1-1.189-2.485,14.925,14.925,0,0,1-.518-3.644V33.93h5.549V47.117a4.177,4.177,0,0,0,.808,2.744,2.714,2.714,0,0,0,2.256.991,2.775,2.775,0,0,0,2.256-.976,4.223,4.223,0,0,0,.808-2.759Z" transform="translate(44.686 17.798)"/>
        <path id="Path_122" data-name="Path 122" class="cls-1" d="M98.581,48.516l5.29-.4a5.641,5.641,0,0,0,.7,2.363,2.775,2.775,0,0,0,2.455,1.311,2.378,2.378,0,0,0,1.845-.671,2.18,2.18,0,0,0,.64-1.525,2.119,2.119,0,0,0-.61-1.525,6.327,6.327,0,0,0-2.851-1.25,11.51,11.51,0,0,1-5.275-2.622,5.839,5.839,0,0,1-1.525-4.177,6.555,6.555,0,0,1,.808-3.141,5.7,5.7,0,0,1,2.424-2.333A9.62,9.62,0,0,1,106.9,33.7a7.9,7.9,0,0,1,5.275,1.525,7.12,7.12,0,0,1,2.15,4.909L109.1,40.5a3.7,3.7,0,0,0-.884-2.134,2.576,2.576,0,0,0-1.86-.671,1.936,1.936,0,0,0-1.525.5,1.616,1.616,0,0,0-.488,1.189,1.311,1.311,0,0,0,.4.945,4.315,4.315,0,0,0,1.875.793,19.819,19.819,0,0,1,5.214,1.906,5.809,5.809,0,0,1,2.317,2.394,7.044,7.044,0,0,1,.717,3.186,7.9,7.9,0,0,1-.96,3.842,6.434,6.434,0,0,1-2.683,2.653,9.345,9.345,0,0,1-4.33.9c-3.049,0-5.183-.7-6.373-2.119a9.239,9.239,0,0,1-2-5.4" transform="translate(51.516 17.664)"/>
        <rect id="Rectangle_81" data-name="Rectangle 81" class="cls-1" width="5.565" height="21.618" transform="translate(169.443 51.728)"/>
        <path id="Path_123" data-name="Path 123" class="cls-1" d="M117.55,33.93h5.183l6.784,11.952V33.93h5.244V55.548h-5.244l-6.738-11.907V55.548H117.55Z" transform="translate(61.498 17.798)"/>
        <path id="Path_124" data-name="Path 124" class="cls-1" d="M131.26,33.93h14.91v4.635h-9.345v3.43H145.5V46.4h-8.675v4.253h9.62v4.894H131.26Z" transform="translate(68.689 17.798)"/>
        <path id="Path_125" data-name="Path 125" class="cls-1" d="M142.545,48.516l5.29-.4a5.427,5.427,0,0,0,.7,2.363,2.775,2.775,0,0,0,2.455,1.311,2.409,2.409,0,0,0,1.845-.671,2.18,2.18,0,0,0,.64-1.525,2.119,2.119,0,0,0-.61-1.525,6.418,6.418,0,0,0-2.851-1.25,11.206,11.206,0,0,1-5.244-2.622,5.732,5.732,0,0,1-1.525-4.177,6.555,6.555,0,0,1,.808-3.141,5.7,5.7,0,0,1,2.424-2.333A9.574,9.574,0,0,1,150.9,33.7a7.851,7.851,0,0,1,5.26,1.525,7.059,7.059,0,0,1,2.165,4.909L153.1,40.5a3.811,3.811,0,0,0-.884-2.134,2.546,2.546,0,0,0-1.86-.671,2.028,2.028,0,0,0-1.525.5,1.677,1.677,0,0,0-.488,1.189,1.326,1.326,0,0,0,.412.945,4.223,4.223,0,0,0,1.875.793,20.2,20.2,0,0,1,5.229,1.906,5.824,5.824,0,0,1,2.287,2.394,6.861,6.861,0,0,1,.732,3.186,8.065,8.065,0,0,1-.961,3.842,6.434,6.434,0,0,1-2.683,2.653,9.345,9.345,0,0,1-4.33.9c-3.049,0-5.183-.7-6.357-2.119a9.147,9.147,0,0,1-2.012-5.4" transform="translate(74.601 17.664)"/>
        <path id="Path_126" data-name="Path 126" class="cls-1" d="M154.471,48.516l5.29-.4a5.427,5.427,0,0,0,.7,2.363,2.79,2.79,0,0,0,2.454,1.311,2.348,2.348,0,0,0,1.829-.671,2.15,2.15,0,0,0,0-3.049,6.327,6.327,0,0,0-2.851-1.25,11.419,11.419,0,0,1-5.229-2.622,5.778,5.778,0,0,1-1.525-4.177,6.388,6.388,0,0,1,.808-3.141,5.7,5.7,0,0,1,2.409-2.333,9.574,9.574,0,0,1,4.421-.854,7.9,7.9,0,0,1,5.275,1.525,7.2,7.2,0,0,1,2.165,4.909l-5.244.366a3.7,3.7,0,0,0-.884-2.134,2.546,2.546,0,0,0-1.86-.671,2,2,0,0,0-1.525.5,1.677,1.677,0,0,0-.488,1.189,1.326,1.326,0,0,0,.412.945,4.223,4.223,0,0,0,1.875.793,19.972,19.972,0,0,1,5.229,1.906,5.961,5.961,0,0,1,2.3,2.394,7.044,7.044,0,0,1,.717,3.186,7.9,7.9,0,0,1-.96,3.842,6.525,6.525,0,0,1-2.683,2.653,9.346,9.346,0,0,1-4.33.9c-3.049,0-5.183-.7-6.373-2.119a9.345,9.345,0,0,1-2-5.4" transform="translate(80.832 17.664)"/>
        <path id="Path_127" data-name="Path 127" class="cls-1" d="M184.707,46.82l4.879,1.768a12.089,12.089,0,0,1-1.525,4.116,7.2,7.2,0,0,1-2.622,2.5,8.476,8.476,0,0,1-3.979.823,9.848,9.848,0,0,1-4.8-1.021,8.263,8.263,0,0,1-3.2-3.6,14.163,14.163,0,0,1-1.357-6.586,12.593,12.593,0,0,1,2.378-8.233,8.233,8.233,0,0,1,6.723-2.9,8.05,8.05,0,0,1,5.351,1.662,9.849,9.849,0,0,1,2.881,5.077l-4.894,1.311a5.336,5.336,0,0,0-.549-1.448,3.384,3.384,0,0,0-1.143-1.174,2.836,2.836,0,0,0-1.524-.412,3.156,3.156,0,0,0-2.9,1.829,8.812,8.812,0,0,0-.762,4.238,9.33,9.33,0,0,0,.915,4.924,2.9,2.9,0,0,0,2.546,1.326,2.79,2.79,0,0,0,2.409-1.082,7.2,7.2,0,0,0,1.189-3.125" transform="translate(90.097 17.668)"/>
        <path id="Path_128" data-name="Path 128" class="cls-1" d="M184.878,44.84a12.455,12.455,0,0,1,2.455-8.233,8.4,8.4,0,0,1,6.891-2.912,8.492,8.492,0,0,1,6.906,2.912,12.2,12.2,0,0,1,2.439,8.111,15.749,15.749,0,0,1-1.067,6.2,8.446,8.446,0,0,1-3.049,3.766,8.766,8.766,0,0,1-5,1.342,9.894,9.894,0,0,1-5.046-1.159,8.6,8.6,0,0,1-3.232-3.689,14.208,14.208,0,0,1-1.235-6.3m5.549,0a8.125,8.125,0,0,0,1.021,4.68A3.171,3.171,0,0,0,194.27,51a3.217,3.217,0,0,0,2.775-1.4,9.147,9.147,0,0,0,.976-5A7.623,7.623,0,0,0,197,40.144a3.263,3.263,0,0,0-2.775-1.4,3.186,3.186,0,0,0-2.7,1.418,8.324,8.324,0,0,0-1.021,4.726" transform="translate(96.802 17.666)"/>
        <path id="Path_129" data-name="Path 129" class="cls-1" d="M199.09,33.93h5.183l6.784,11.952V33.93h5.229V55.548h-5.229L204.3,43.641V55.548H199.09Z" transform="translate(104.269 17.798)"/>
        <path id="Path_130" data-name="Path 130" class="cls-1" d="M225.023,46.821l4.863,1.768a12.089,12.089,0,0,1-1.525,4.116,7.318,7.318,0,0,1-2.622,2.5,8.553,8.553,0,0,1-3.979.823,9.879,9.879,0,0,1-4.8-1.021,8.263,8.263,0,0,1-3.2-3.6,13.98,13.98,0,0,1-1.357-6.586,12.592,12.592,0,0,1,2.378-8.233,8.233,8.233,0,0,1,6.723-2.9,7.958,7.958,0,0,1,5.336,1.662,9.757,9.757,0,0,1,2.9,5.077l-4.909,1.311a6.828,6.828,0,0,0-.518-1.448,3.552,3.552,0,0,0-1.159-1.174,2.836,2.836,0,0,0-1.525-.412,3.141,3.141,0,0,0-2.9,1.829,8.781,8.781,0,0,0-.823,4.3,9.482,9.482,0,0,0,.915,4.924,2.942,2.942,0,0,0,2.561,1.326,2.805,2.805,0,0,0,2.409-1.082,7.2,7.2,0,0,0,1.189-3.125" transform="translate(111.236 17.667)"/>
        <path id="Path_131" data-name="Path 131" class="cls-1" d="M225.63,33.93h14.895v4.635h-9.33v3.43h8.675V46.4h-8.675v4.253h9.62v4.894H225.63Z" transform="translate(118.19 17.798)"/>
        <path id="Path_132" data-name="Path 132" class="cls-1" d="M237.54,33.937h9.239a5.671,5.671,0,0,1,4.574,1.738,7.226,7.226,0,0,1,1.525,4.909,7.516,7.516,0,0,1-1.631,5.122,6.418,6.418,0,0,1-5,1.845H243.2v8h-5.58Zm5.58,9.254h1.357a3.14,3.14,0,0,0,2.272-.671,2.409,2.409,0,0,0,.64-1.723,2.668,2.668,0,0,0-.564-1.723,2.577,2.577,0,0,0-2.119-.717h-1.525Z" transform="translate(124.438 17.791)"/>
        <path id="Path_133" data-name="Path 133" class="cls-1" d="M248.62,33.93h16.907v5.336h-5.671V55.548h-5.549V39.266H248.62Z" transform="translate(130.25 17.798)"/>
        <path id="Path_134" data-name="Path 134" class="cls-1" d="M111.827,27.058H73.21v-9.3a7.287,7.287,0,0,1,1.936-4.741,5.61,5.61,0,0,1,4.314-2.287v9.635h23.082V10.73h6.2v9.635H111.8Z" transform="translate(38.24 5.628)"/>
        <path id="Path_135" data-name="Path 135" class="cls-1" d="M98.5,30.483h65.662V14.308h-6.6v9.528H145.547V14.353H138.9v9.483h-3.949V14.353h-6.586v9.483H124.4V14.353h-6.54v9.483h-7.486V14.308h-6.54v9.528H98.561M220.936,13.271H203.678L213.5,4.2h-9.284l-9.6,9.147v6.6h27.9q2.378,0,2.378,1.875c0,1.387-.793,2.089-2.378,2.089H186.664V13.271h-9.65c-5,0-7.486,1.906-7.486,5.7v6.4c0,3.354,1.753,5.046,5.275,5.046h5.26c0,2.211-.64,3.369-1.936,3.476l4.055,3.43c2.714-.152,4.223-.976,4.482-2.485V30.422h34.272c5.275,0,7.9-2.759,7.9-8.294Q228.856,13.279,220.936,13.271ZM180.063,26.458c-2.622,0-3.949-.9-3.949-2.683V20.1c0-1.525,1.326-2.211,3.949-2.211Z" transform="translate(51.505 2.203)"/>
        <path id="Path_136" data-name="Path 136" class="cls-1" d="M241.129,20.358H229.1V10.876h-6.6v9.483H218.52V10.876h-6.6v9.483H208V10.876h-6.6V24.719c0,1.921-.671,2.881-2,2.881s-1.951-.96-1.951-2.881V10.876h-6.6V26.944q0,5.077,8.781,5.077,8.37,0,8.37-5.077h39.73V10.83h-6.6Zm50.31-9.528v9.528h-12.2V10.83h-6.586v9.528H260.369V11.089h-6.586V26.944c0,2.211-.656,3.369-1.951,3.476l4.055,3.43c2.729-.152,4.223-.976,4.482-2.485V26.944h37.687V10.83Z" transform="translate(99.947 5.681)"/>
        <path id="Path_137" data-name="Path 137" class="cls-1" d="M243.168,27.654H238V23.37h5.2Zm7.242,0h-5.168V23.37h5.168Z" transform="translate(124.679 12.259)"/>
        <rect id="Rectangle_82" data-name="Rectangle 82" class="cls-1" width="5.168" height="4.284" transform="translate(385.928 35.629)"/>
        <rect id="Rectangle_83" data-name="Rectangle 83" class="cls-1" width="5.168" height="4.284" transform="translate(150.463 35.629)"/>
        <rect id="Rectangle_84" data-name="Rectangle 84" class="cls-1" width="5.183" height="4.284" transform="translate(354.126 9.422)"/>
        <rect id="Rectangle_85" data-name="Rectangle 85" class="cls-1" width="5.183" height="4.284" transform="translate(333.926 9.422)"/>
        <rect id="Rectangle_86" data-name="Rectangle 86" class="cls-1" width="5.168" height="4.284" transform="translate(201.931 9.422)"/>
        <path id="Path_138" data-name="Path 138" class="cls-1" d="M86.783,10.453H81.6V6.23h5.183Zm7.257,0H88.887V6.23h5.168Z" transform="translate(42.64 3.268)"/>
      </g>
    </g>
    <g id="Layer_2-2" data-name="Layer 2" transform="translate(139.853 17.356)">
      <g id="Layer_1-2" data-name="Layer 1" transform="translate(0.147)">
        <path id="Path_139" data-name="Path 139" class="cls-2" d="M32.528,11.954c6.1,8.294,15.143,12.006,20.213,8.294,2.788-2.039,3.781-5.907,3.119-10.351A47.048,47.048,0,0,0,27.51,0a26.138,26.138,0,0,0,5.018,11.954Z" transform="translate(20.171)"/>
        <path id="Path_140" data-name="Path 140" class="cls-3" d="M82.1,14.792C87.227,26.4,86.617,37.811,79.769,42.83c-8.713,6.43-24.4,0-34.851-14.324C37.948,19.1,35.073,8.624,36.31.73A47.238,47.238,0,1,0,82.1,14.792Z" transform="translate(-0.147 0.542)"/>
      </g>
    </g>
  </g>
</svg>
